<?xml version="1.0" encoding="UTF-8"?><svg id="Layer_1" xmlns="http://www.w3.org/2000/svg" viewBox="0 0 38 25"><defs><style>.cls-1{fill:#ec1e24;}.cls-2{fill:#fff;}.cls-3{fill:#ffbbed;}.cls-4{fill:#c0cae6;}.cls-5{fill:#8092c9;}.cls-6{fill:#6179ba;}</style></defs><polygon class="cls-3" points="22 10.5 22 9.5 22 8.5 21 8.5 21 7.5 21 6.5 20 6.5 20 5.5 19 5.5 19 4.5 18 4.5 17 4.5 17 3.5 16 3.5 15 3.5 15 2.5 14 2.5 13 2.5 12 2.5 11 2.5 11 3.5 10 3.5 9 3.5 9 4.5 8 4.5 7 4.5 7 5.5 6 5.5 6 6.5 5 6.5 5 7.5 5 8.5 4 8.5 4 9.5 4 10.5 3 10.5 3 11.5 3 12.5 3 13.5 3 14.5 4 14.5 4 15.5 4 16.5 5 16.5 5 17.5 5 18.5 6 18.5 6 19.5 7 19.5 7 20.5 8 20.5 9 20.5 9 21.5 10 21.5 11 21.5 11 22.5 12 22.5 13 22.5 14 22.5 15 22.5 15 21.5 16 21.5 17 21.5 17 20.5 18 20.5 19 20.5 19 19.5 20 19.5 20 18.5 21 18.5 21 17.5 21 16.5 22 16.5 22 15.5 22 14.5 23 14.5 23 13.5 23 12.5 23 11.5 23 10.5 22 10.5"/><polygon class="cls-2" points="9.5 9 8.5 9 8.5 10 7.5 10 7.5 11 7.5 12 8.5 12 8.5 11 9.5 11 9.5 10 10.5 10 10.5 9 9.5 9"/><path class="cls-1" d="m18.5,9v-1h-4v1h-1v1h-1v-1h-1v-1h-4v1h-1v4h1v1h1v1h1v1h1v1h1v1h1v1h1v-1h1v-1h1v-1h1v-1h1v-1h1v-1h1v-4h-1Zm-11,2v-1h1v-1h2v1h-1v1h-1v1h-1v-1Z"/><polygon points="9.5 8 10.5 8 11.5 8 11.5 7 10.5 7 9.5 7 8.5 7 7.5 7 7.5 8 8.5 8 9.5 8"/><polygon points="16.5 8 17.5 8 18.5 8 18.5 7 17.5 7 16.5 7 15.5 7 14.5 7 14.5 8 15.5 8 16.5 8"/><rect x="6.5" y="8" width="1" height="1"/><rect x="11.5" y="8" width="1" height="1"/><rect x="13.5" y="8" width="1" height="1"/><rect x="18.5" y="8" width="1" height="1"/><rect x="12.5" y="9" width="1" height="1"/><polygon points="19.5 9 19.5 10 19.5 11 19.5 12 19.5 13 20.5 13 20.5 12 20.5 11 20.5 10 20.5 9 19.5 9"/><polygon points="6.5 11 6.5 10 6.5 9 5.5 9 5.5 10 5.5 11 5.5 12 5.5 13 6.5 13 6.5 12 6.5 11"/><rect x="6.5" y="13" width="1" height="1"/><rect x="18.5" y="13" width="1" height="1"/><rect x="7.5" y="14" width="1" height="1"/><rect x="17.5" y="14" width="1" height="1"/><rect x="8.5" y="15" width="1" height="1"/><rect x="16.5" y="15" width="1" height="1"/><rect x="9.5" y="16" width="1" height="1"/><rect x="15.5" y="16" width="1" height="1"/><rect x="10.5" y="17" width="1" height="1"/><rect x="14.5" y="17" width="1" height="1"/><rect x="11.5" y="18" width="1" height="1"/><rect x="13.5" y="18" width="1" height="1"/><rect x="12.5" y="19" width="1" height="1"/><polygon class="cls-6" points="34 10.5 34 9.5 34 8.5 33 8.5 33 7.5 33 6.5 32 6.5 32 5.5 31 5.5 31 4.5 30 4.5 29 4.5 29 3.5 28 3.5 27 3.5 27 2.5 26 2.5 25 2.5 24 2.5 23 2.5 23 3.5 22 3.5 21 3.5 21 4.5 20 4.5 19 4.5 19 5.5 18 5.5 18 6.5 17 6.5 17 7.5 17 8.5 16 8.5 16 9.5 16 10.5 15 10.5 15 11.5 15 12.5 15 13.5 15 14.5 16 14.5 16 15.5 16 16.5 17 16.5 17 17.5 17 18.5 18 18.5 18 19.5 19 19.5 19 20.5 20 20.5 21 20.5 21 21.5 22 21.5 23 21.5 23 22.5 24 22.5 25 22.5 26 22.5 27 22.5 27 21.5 28 21.5 29 21.5 29 20.5 30 20.5 31 20.5 31 19.5 32 19.5 32 18.5 33 18.5 33 17.5 33 16.5 34 16.5 34 15.5 34 14.5 35 14.5 35 13.5 35 12.5 35 11.5 35 10.5 34 10.5"/><rect class="cls-2" x="20" y="14" width="1" height="1"/><rect class="cls-2" x="21" y="15" width="1" height="1"/><polygon class="cls-2" points="24 16 23 16 22 16 22 17 22 18 23 18 23 19 24 19 24 20 25 20 25 19 25 18 25 17 24 17 24 16"/><rect class="cls-2" x="20" y="12" width="1" height="1"/><polygon class="cls-2" points="24 5 24 6 24 7 23 7 23 8 23 9 22 9 22 10 22 11 21 11 21 12 22 12 23 12 23 11 24 11 24 10 25 10 25 9 25 8 25 7 25 6 25 5 24 5"/><polygon class="cls-5" points="28 12 27 12 27 11 26 11 26 10 25 10 25 11 25 12 25 13 25 14 25 15 25 16 26 16 26 15 27 15 28 15 28 14 29 14 29 13 29 12 28 12"/><polygon class="cls-4" points="24 11 23 11 23 12 22 12 21 12 21 13 21 14 22 14 22 15 23 15 24 15 24 16 25 16 25 15 25 14 25 13 25 12 25 11 25 10 24 10 24 11"/><polygon class="cls-4" points="26 16 26 17 25 17 25 18 25 19 25 20 26 20 26 19 27 19 27 18 28 18 28 17 28 16 27 16 26 16"/><rect class="cls-4" x="28" y="15" width="1" height="1"/><rect class="cls-4" x="29" y="14" width="1" height="1"/><polygon class="cls-4" points="28 11 28 10 28 9 27 9 27 8 27 7 26 7 26 6 26 5 25 5 25 6 25 7 25 8 25 9 25 10 26 10 26 11 27 11 27 12 28 12 29 12 29 11 28 11"/><rect class="cls-4" x="29" y="12" width="1" height="1"/></svg>