<?xml version="1.0" encoding="UTF-8"?><svg id="Layer_1" xmlns="http://www.w3.org/2000/svg" xmlns:xlink="http://www.w3.org/1999/xlink" viewBox="0 0 38 25"><defs><style>.cls-1{fill:#faa872;}.cls-2{fill:lime;}.cls-3{fill:#68a58b;}.cls-4{fill:#ec1e24;}.cls-5{fill:#ebd397;}.cls-6,.cls-7{fill:#fff;}.cls-8{fill:#ffbbed;}.cls-9{fill:#6b543e;}.cls-10{fill:#b3c465;}.cls-11{fill:#9a00f2;}.cls-12{fill:#322219;}.cls-13{fill:#bd60cf;}.cls-14{fill:#de80bf;}.cls-15{fill:#d07a6c;}.cls-16{fill:#e1b3a1;}.cls-17{fill:#d66156;}.cls-18{fill:#dfc8c9;}.cls-19{fill:#6e9f8e;}.cls-20{fill:#64433c;}.cls-21{filter:url(#drop-shadow-21);}.cls-7{opacity:.45;}</style><filter id="drop-shadow-21" filterUnits="userSpaceOnUse"><feOffset dx="-.2" dy=".2"/><feGaussianBlur result="blur" stdDeviation="1"/><feFlood flood-color="#231f20" flood-opacity=".75"/><feComposite in2="blur" operator="in"/><feComposite in="SourceGraphic"/></filter></defs><polygon class="cls-8" points="22 10.5 22 9.5 22 8.5 21 8.5 21 7.5 21 6.5 20 6.5 20 5.5 19 5.5 19 4.5 18 4.5 17 4.5 17 3.5 16 3.5 15 3.5 15 2.5 14 2.5 13 2.5 12 2.5 11 2.5 11 3.5 10 3.5 9 3.5 9 4.5 8 4.5 7 4.5 7 5.5 6 5.5 6 6.5 5 6.5 5 7.5 5 8.5 4 8.5 4 9.5 4 10.5 3 10.5 3 11.5 3 12.5 3 13.5 3 14.5 4 14.5 4 15.5 4 16.5 5 16.5 5 17.5 5 18.5 6 18.5 6 19.5 7 19.5 7 20.5 8 20.5 9 20.5 9 21.5 10 21.5 11 21.5 11 22.5 12 22.5 13 22.5 14 22.5 15 22.5 15 21.5 16 21.5 17 21.5 17 20.5 18 20.5 19 20.5 19 19.5 20 19.5 20 18.5 21 18.5 21 17.5 21 16.5 22 16.5 22 15.5 22 14.5 23 14.5 23 13.5 23 12.5 23 11.5 23 10.5 22 10.5"/><polygon class="cls-6" points="9.5 9 8.5 9 8.5 10 7.5 10 7.5 11 7.5 12 8.5 12 8.5 11 9.5 11 9.5 10 10.5 10 10.5 9 9.5 9"/><path class="cls-4" d="m18.5,9v-1h-4v1h-1v1h-1v-1h-1v-1h-4v1h-1v4h1v1h1v1h1v1h1v1h1v1h1v1h1v-1h1v-1h1v-1h1v-1h1v-1h1v-1h1v-4h-1Zm-11,2v-1h1v-1h2v1h-1v1h-1v1h-1v-1Z"/><polygon points="9.5 8 10.5 8 11.5 8 11.5 7 10.5 7 9.5 7 8.5 7 7.5 7 7.5 8 8.5 8 9.5 8"/><polygon points="16.5 8 17.5 8 18.5 8 18.5 7 17.5 7 16.5 7 15.5 7 14.5 7 14.5 8 15.5 8 16.5 8"/><rect x="6.5" y="8" width="1" height="1"/><rect x="11.5" y="8" width="1" height="1"/><rect x="13.5" y="8" width="1" height="1"/><rect x="18.5" y="8" width="1" height="1"/><rect x="12.5" y="9" width="1" height="1"/><polygon points="19.5 9 19.5 10 19.5 11 19.5 12 19.5 13 20.5 13 20.5 12 20.5 11 20.5 10 20.5 9 19.5 9"/><polygon points="6.5 11 6.5 10 6.5 9 5.5 9 5.5 10 5.5 11 5.5 12 5.5 13 6.5 13 6.5 12 6.5 11"/><rect x="6.5" y="13" width="1" height="1"/><rect x="18.5" y="13" width="1" height="1"/><rect x="7.5" y="14" width="1" height="1"/><rect x="17.5" y="14" width="1" height="1"/><rect x="8.5" y="15" width="1" height="1"/><rect x="16.5" y="15" width="1" height="1"/><rect x="9.5" y="16" width="1" height="1"/><rect x="15.5" y="16" width="1" height="1"/><rect x="10.5" y="17" width="1" height="1"/><rect x="14.5" y="17" width="1" height="1"/><rect x="11.5" y="18" width="1" height="1"/><rect x="13.5" y="18" width="1" height="1"/><rect x="12.5" y="19" width="1" height="1"/><g class="cls-21"><polygon class="cls-9" points="33.5 10.5 33.5 9.5 33.5 8.5 32.5 8.5 32.5 7.5 32.5 6.5 31.5 6.5 31.5 5.5 30.5 5.5 30.5 4.5 29.5 4.5 28.5 4.5 28.5 3.5 27.5 3.5 26.5 3.5 26.5 2.5 25.5 2.5 24.5 2.5 23.5 2.5 22.5 2.5 22.5 3.5 21.5 3.5 20.5 3.5 20.5 4.5 19.5 4.5 18.5 4.5 18.5 5.5 17.5 5.5 17.5 6.5 16.5 6.5 16.5 7.5 16.5 8.5 15.5 8.5 15.5 9.5 15.5 10.5 14.5 10.5 14.5 11.5 14.5 12.5 14.5 13.5 14.5 14.5 15.5 14.5 15.5 15.5 16.5 15.5 17.5 15.5 18.5 15.5 19.5 15.5 20.5 15.5 21.5 15.5 22.5 15.5 23.5 15.5 24.5 15.5 25.5 15.5 26.5 15.5 27.5 15.5 28.5 15.5 29.5 15.5 30.5 15.5 31.5 15.5 32.5 15.5 33.5 15.5 33.5 14.5 34.5 14.5 34.5 13.5 34.5 12.5 34.5 11.5 34.5 10.5 33.5 10.5"/><polygon class="cls-18" points="32.5 15.5 31.5 15.5 30.5 15.5 29.5 15.5 28.5 15.5 27.5 15.5 26.5 15.5 25.5 15.5 24.5 15.5 23.5 15.5 22.5 15.5 21.5 15.5 20.5 15.5 19.5 15.5 18.5 15.5 17.5 15.5 16.5 15.5 15.5 15.5 15.5 16.5 16.5 16.5 16.5 17.5 16.5 18.5 17.5 18.5 17.5 19.5 18.5 19.5 18.5 20.5 19.5 20.5 20.5 20.5 20.5 21.5 21.5 21.5 22.5 21.5 22.5 22.5 23.5 22.5 24.5 22.5 25.5 22.5 26.5 22.5 26.5 21.5 27.5 21.5 28.5 21.5 28.5 20.5 29.5 20.5 30.5 20.5 30.5 19.5 31.5 19.5 31.5 18.5 32.5 18.5 32.5 17.5 32.5 16.5 33.5 16.5 33.5 15.5 32.5 15.5"/></g><polygon class="cls-2" points="27.83 13.53 27.83 13.86 28.17 13.86 28.17 13.53 28.17 13.19 27.83 13.19 27.83 13.53"/><rect class="cls-2" x="29.5" y="12.19" width=".33" height=".33"/><polygon class="cls-2" points="29.17 11.86 29.17 11.53 28.83 11.53 28.83 11.86 28.83 12.19 28.83 12.53 28.83 12.86 28.83 13.19 29.17 13.19 29.17 12.86 29.17 12.53 29.17 12.19 29.5 12.19 29.5 11.86 29.17 11.86"/><polygon class="cls-2" points="30.17 11.86 29.83 11.86 29.83 12.19 30.17 12.19 30.17 12.53 30.17 12.86 30.17 13.19 30.5 13.19 30.5 12.86 30.5 12.53 30.5 12.19 30.5 11.86 30.5 11.53 30.17 11.53 30.17 11.86"/><polygon class="cls-2" points="31.17 12.19 31.17 11.86 30.83 11.86 30.83 12.19 30.83 12.53 30.83 12.86 31.17 12.86 31.17 12.53 31.17 12.19"/><polygon class="cls-2" points="31.5 12.86 31.17 12.86 31.17 13.19 31.5 13.19 31.83 13.19 32.17 13.19 32.17 12.86 31.83 12.86 31.5 12.86"/><polygon class="cls-2" points="31.83 11.86 32.17 11.86 32.17 11.53 31.83 11.53 31.5 11.53 31.17 11.53 31.17 11.86 31.5 11.86 31.83 11.86"/><polygon class="cls-2" points="33.17 12.19 33.17 11.86 32.83 11.86 32.83 12.19 32.83 12.53 32.83 12.86 33.17 12.86 33.17 12.53 33.17 12.19"/><polygon class="cls-2" points="33.83 11.86 34.17 11.86 34.5 11.86 34.5 11.53 34.17 11.53 33.83 11.53 33.5 11.53 33.17 11.53 33.17 11.86 33.5 11.86 33.83 11.86"/><polygon class="cls-2" points="33.5 13.19 33.83 13.19 34.17 13.19 34.5 13.19 34.5 12.86 34.5 12.53 34.5 12.19 34.17 12.19 33.83 12.19 33.5 12.19 33.5 12.53 33.83 12.53 34.17 12.53 34.17 12.86 33.83 12.86 33.5 12.86 33.17 12.86 33.17 13.19 33.5 13.19"/><polygon class="cls-2" points="32.17 12.19 32.17 12.53 32.17 12.86 32.5 12.86 32.5 12.53 32.5 12.19 32.5 11.86 32.17 11.86 32.17 12.19"/><rect class="cls-2" x="28.17" y="11.53" width=".33" height=".33"/><polygon class="cls-2" points="28.17 10.86 27.83 10.86 27.83 11.19 27.83 11.53 28.17 11.53 28.17 11.19 28.17 10.86"/><polygon class="cls-2" points="27.5 11.86 27.5 12.19 27.5 12.53 27.83 12.53 28.17 12.53 28.17 12.86 28.17 13.19 28.5 13.19 28.5 12.86 28.5 12.53 28.5 12.19 28.17 12.19 27.83 12.19 27.83 11.86 27.83 11.53 27.5 11.53 27.5 11.86"/><rect class="cls-2" x="27.5" y="12.86" width=".33" height=".33"/><rect class="cls-19" x="17.5" y="11.5" width=".5" height=".5"/><rect class="cls-19" x="18" y="12" width=".5" height=".5"/><rect class="cls-19" x="18" y="12.5" width=".5" height=".5"/><rect class="cls-5" x="18.5" y="10" width=".5" height=".5"/><rect class="cls-5" x="18.5" y="9.5" width=".5" height=".5"/><rect class="cls-5" x="19" y="10.5" width=".5" height=".5"/><rect class="cls-5" x="19" y="11" width=".5" height=".5"/><rect class="cls-5" x="19" y="11.5" width=".5" height=".5"/><rect class="cls-5" x="19" y="10" width=".5" height=".5"/><rect class="cls-5" x="19.5" y="11" width=".5" height=".5"/><rect class="cls-5" x="19.5" y="11.5" width=".5" height=".5"/><rect class="cls-5" x="19.5" y="12" width=".5" height=".5"/><rect class="cls-5" x="19.5" y="12.5" width=".5" height=".5"/><rect class="cls-7" x="21" y="14" width=".5" height=".5"/><rect class="cls-7" x="21.5" y="13.5" width=".5" height=".5"/><polygon class="cls-1" points="22.5 13 22 13 22 13.5 22.5 13.5 23 13.5 23 13 22.5 13"/><polygon class="cls-17" points="25 13 25 12.5 24.5 12.5 24 12.5 23.5 12.5 23 12.5 22.5 12.5 22 12.5 22 13 22.5 13 23 13 23 13.5 23.5 13.5 24 13.5 24.5 13.5 25 13.5 25.5 13.5 25.5 13 25 13"/><polygon class="cls-11" points="25 10 25 9.5 24.5 9.5 24.5 9 24.5 8.5 24 8.5 24 8 24 7.5 23.5 7.5 23 7.5 22.5 7.5 22 7.5 22 8 21.5 8 21 8 21 8.5 20.5 8.5 20 8.5 19.5 8.5 19.5 9 19 9 19 9.5 19.5 9.5 19.5 10 20 10 20 10.5 20 11 20.5 11 20.5 11.5 20.5 12 20.5 12.5 21 12.5 21 12 21.5 12 21.5 11.5 21.5 11 21.5 10.5 21.5 10 21.5 9.5 21.5 9 22 9 22.5 9 22.5 9.5 22.5 10 23 10 23 10.5 23.5 10.5 24 10.5 24 11 24.5 11 25 11 25 10.5 25.5 10.5 25.5 10 25 10"/><rect class="cls-14" x="18.5" y="9" width=".5" height=".5"/><rect class="cls-14" x="19" y="9.5" width=".5" height=".5"/><polygon class="cls-14" points="20 10 19.5 10 19.5 10.5 19.5 11 20 11 20 10.5 20 10"/><polygon class="cls-14" points="20 11.5 20 12 20 12.5 20 13 20.5 13 20.5 12.5 20.5 12 20.5 11.5 20.5 11 20 11 20 11.5"/><rect class="cls-14" x="23.5" y="7" width=".5" height=".5"/><polygon class="cls-14" points="24.5 7.5 24 7.5 24 8 24 8.5 24.5 8.5 24.5 8 24.5 7.5"/><polygon class="cls-14" points="25 8.5 24.5 8.5 24.5 9 24.5 9.5 25 9.5 25 9 25 8.5"/><rect class="cls-14" x="25" y="9.5" width=".5" height=".5"/><rect class="cls-14" x="25.5" y="10" width=".5" height=".5"/><polygon class="cls-16" points="25 7.5 25 7 24.5 7 24 7 24 7.5 24.5 7.5 24.5 8 24.5 8.5 25 8.5 25 8 25 7.5"/><polygon class="cls-16" points="25.5 8.5 25 8.5 25 9 25 9.5 25.5 9.5 25.5 9 25.5 8.5"/><polygon class="cls-16" points="26 9.5 25.5 9.5 25.5 10 26 10 26.5 10 26.5 9.5 26 9.5"/><polygon class="cls-10" points="19 11 19 10.5 18.5 10.5 18.5 10 18.5 9.5 18 9.5 18 10 18 10.5 18 11 18.5 11 18.5 11.5 18.5 12 19 12 19 11.5 19 11"/><polygon class="cls-10" points="19 12.5 19 13 19.5 13 19.5 12.5 19.5 12 19 12 19 12.5"/><polygon class="cls-10" points="26 9 26 8.5 26 8 25.5 8 25.5 7.5 25.5 7 25 7 25 7.5 25 8 25 8.5 25.5 8.5 25.5 9 25.5 9.5 26 9.5 26.5 9.5 26.5 9 26 9"/><polygon class="cls-13" points="17.5 10.5 17 10.5 17 11 17 11.5 17.5 11.5 18 11.5 18 11 17.5 11 17.5 10.5"/><rect class="cls-13" x="26" y="7" width=".5" height=".5"/><polygon class="cls-20" points="21.5 13 21 13 21 13.5 21 14 21.5 14 21.5 13.5 22 13.5 22 13 22 12.5 21.5 12.5 21.5 13"/><polygon class="cls-20" points="26.5 11 26.5 10.5 26.5 10 26 10 26 10.5 26 11 26 11.5 26 12 26.5 12 26.5 11.5 26.5 11"/><polygon class="cls-20" points="26.5 12 26.5 12.5 26 12.5 25.5 12.5 25.5 12 25 12 24.5 12 24 12 23.5 12 23.5 11.5 23 11.5 23 12 22.5 12 22 12 22 12.5 22.5 12.5 23 12.5 23.5 12.5 24 12.5 24.5 12.5 25 12.5 25 13 25.5 13 26 13 26 13.5 26 14 25.5 14 25.5 14.5 25 14.5 24.5 14.5 24 14.5 24 14 24.5 14 25 14 25 13.5 24.5 13.5 24 13.5 23.5 13.5 23 13.5 23 14 23.5 14 23.5 14.5 23 14.5 23 15 22.5 15 22 15 21.5 15 21 15 20.5 15 20.5 14.5 20 14.5 19.5 14.5 19.5 14 19 14 19 13.5 18.5 13.5 18 13.5 18 14 18.5 14 18.5 14.5 19 14.5 19 15 19 15.5 19.5 15.5 19.5 16 19.5 16.5 20 16.5 20 17 20.5 17 21 17 21 17.5 21.5 17.5 22 17.5 22.5 17.5 23 17.5 23.5 17.5 24 17.5 24.5 17.5 25 17.5 25.5 17.5 26 17.5 26.5 17.5 26.5 17 27 17 27 16.5 27 16 27 15.5 27 15 27 14.5 27 14 27 13.5 27 13 27 12.5 27 12 26.5 12"/><polygon class="cls-15" points="17.5 10 18 10 18 9.5 18.5 9.5 18.5 9 19 9 19.5 9 19.5 8.5 20 8.5 20.5 8.5 21 8.5 21 8 21.5 8 22 8 22 7.5 22.5 7.5 23 7.5 23.5 7.5 23.5 7 23.5 6.5 23 6.5 22.5 6.5 22.5 6 22 6 21.5 6 21 6 20.5 6 20 6 19.5 6 19.5 6.5 19 6.5 18.5 6.5 18.5 7 18 7 18 7.5 17.5 7.5 17.5 8 17.5 8.5 17 8.5 17 9 17 9.5 17 10 17 10.5 17.5 10.5 17.5 10"/><polygon class="cls-15" points="19 13.5 19 14 19.5 14 19.5 14.5 20 14.5 20.5 14.5 20.5 15 21 15 21.5 15 22 15 22.5 15 23 15 23 14.5 23.5 14.5 23.5 14 23 14 23 13.5 22.5 13.5 22 13.5 22 14 21.5 14 21.5 14.5 21 14.5 21 14 21 13.5 21 13 21.5 13 21.5 12.5 22 12.5 22 12 22 11.5 22.5 11.5 22.5 12 23 12 23 11.5 23 11 23.5 11 23.5 11.5 23.5 12 24 12 24.5 12 25 12 25.5 12 25.5 12.5 26 12.5 26.5 12.5 26.5 12 26 12 26 11.5 26 11 26 10.5 25.5 10.5 25 10.5 25 11 24.5 11 24 11 24 10.5 23.5 10.5 23 10.5 23 10 22.5 10 22.5 9.5 22 9.5 21.5 9.5 21.5 10 21.5 10.5 21.5 11 21.5 11.5 21.5 12 21 12 21 12.5 20.5 12.5 20.5 13 20 13 19.5 13 19 13 18.5 13 18 13 18 13.5 18.5 13.5 19 13.5"/><polygon class="cls-15" points="25.5 13.5 25 13.5 25 14 24.5 14 24 14 24 14.5 24.5 14.5 25 14.5 25.5 14.5 25.5 14 26 14 26 13.5 26 13 25.5 13 25.5 13.5"/><polygon class="cls-15" points="31 19 30.5 19 30 19 29.5 19 29 19 28.5 19 28.5 18.5 28.5 18 28.5 17.5 28 17.5 28 17 27.5 17 27.5 16.5 27.5 16 27 16 27 16.5 27 17 26.5 17 26.5 17.5 26 17.5 25.5 17.5 25 17.5 24.5 17.5 24 17.5 23.5 17.5 23 17.5 22.5 17.5 22 17.5 21.5 17.5 21 17.5 21 17 20.5 17 20 17 20 16.5 19.5 16.5 19.5 16 19.5 15.5 19 15.5 19 15 19 14.5 18.5 14.5 18.5 14 18 14 18 13.5 17.5 13.5 17.5 14 17 14 17 14.5 17 15 17 15.5 17.5 15.5 17.5 16 17.5 16.5 18 16.5 18 17 18.5 17 19 17 19.5 17 19.5 17.5 20 17.5 20 18 20.5 18 20.5 18.5 20.5 19 20.5 19.5 20.5 20 20.5 20.5 20.5 21 20.5 21.5 21 21.5 21.5 21.5 22 21.5 22.5 21.5 22.5 22 22.5 22.5 23 22.5 23.5 22.5 24 22.5 24.5 22.5 25 22.5 25.5 22.5 26 22.5 26.5 22.5 26.5 22 26.5 21.5 27 21.5 27.5 21.5 28 21.5 28.5 21.5 28.5 21 28.5 20.5 29 20.5 29.5 20.5 30 20.5 30.5 20.5 30.5 20 30.5 19.5 31 19.5 31.5 19.5 31.5 19 31 19"/><polygon class="cls-3" points="18 10 17.5 10 17.5 10.5 17.5 11 18 11 18 10.5 18 10"/><polygon class="cls-3" points="18.5 11 18 11 18 11.5 18 12 18.5 12 18.5 11.5 18.5 11"/><polygon class="cls-3" points="18.5 12.5 18.5 13 19 13 19 12.5 19 12 18.5 12 18.5 12.5"/><polygon class="cls-3" points="26.5 8 26.5 7.5 26 7.5 26 7 25.5 7 25.5 7.5 25.5 8 26 8 26 8.5 26 9 26.5 9 26.5 9.5 26.5 10 27 10 27 9.5 27 9 27 8.5 27 8 26.5 8"/><polygon class="cls-12" points="21.5 9 21.5 9.5 22 9.5 22.5 9.5 22.5 9 22 9 21.5 9"/><rect class="cls-12" x="22" y="11.5" width=".5" height=".5"/><rect class="cls-12" x="23" y="11" width=".5" height=".5"/><path class="cls-12" d="m24.5,6.5v-.5h-1v-.5h-1.5v-.5h-.5v-.5h-1.5v.5h-.5v-.5h-.5v1h-1v.5h-.5v.5h-.5v1h-.5v1h-.5v.5h.5v.5h-.5v1.5h.5v.5h-.5v1h.5v.5h.5v1h.5v-.5h.5v-1.5h-.5v-.5h-.5v-3h.5v-1h.5v-.5h.5v-.5h1v-.5h3v.5h1v.5h1.5v-.5h-.5Zm-3.5-1h-.5v-.5h.5v.5Z"/></svg>