<?xml version="1.0" encoding="UTF-8"?><svg id="Layer_1" xmlns="http://www.w3.org/2000/svg" viewBox="0 0 38 25"><defs><style>.cls-1{fill:#ec1e24;}.cls-2{fill:#fff;}.cls-3{fill:#ffbbed;}.cls-4{fill:#50ae94;}</style></defs><polygon class="cls-3" points="22 10.5 22 9.5 22 8.5 21 8.5 21 7.5 21 6.5 20 6.5 20 5.5 19 5.5 19 4.5 18 4.5 17 4.5 17 3.5 16 3.5 15 3.5 15 2.5 14 2.5 13 2.5 12 2.5 11 2.5 11 3.5 10 3.5 9 3.5 9 4.5 8 4.5 7 4.5 7 5.5 6 5.5 6 6.5 5 6.5 5 7.5 5 8.5 4 8.5 4 9.5 4 10.5 3 10.5 3 11.5 3 12.5 3 13.5 3 14.5 4 14.5 4 15.5 4 16.5 5 16.5 5 17.5 5 18.5 6 18.5 6 19.5 7 19.5 7 20.5 8 20.5 9 20.5 9 21.5 10 21.5 11 21.5 11 22.5 12 22.5 13 22.5 14 22.5 15 22.5 15 21.5 16 21.5 17 21.5 17 20.5 18 20.5 19 20.5 19 19.5 20 19.5 20 18.5 21 18.5 21 17.5 21 16.5 22 16.5 22 15.5 22 14.5 23 14.5 23 13.5 23 12.5 23 11.5 23 10.5 22 10.5"/><polygon class="cls-2" points="9.5 9 8.5 9 8.5 10 7.5 10 7.5 11 7.5 12 8.5 12 8.5 11 9.5 11 9.5 10 10.5 10 10.5 9 9.5 9"/><path class="cls-1" d="m18.5,9v-1h-4v1h-1v1h-1v-1h-1v-1h-4v1h-1v4h1v1h1v1h1v1h1v1h1v1h1v1h1v-1h1v-1h1v-1h1v-1h1v-1h1v-1h1v-4h-1Zm-11,2v-1h1v-1h2v1h-1v1h-1v1h-1v-1Z"/><polygon points="9.5 8 10.5 8 11.5 8 11.5 7 10.5 7 9.5 7 8.5 7 7.5 7 7.5 8 8.5 8 9.5 8"/><polygon points="16.5 8 17.5 8 18.5 8 18.5 7 17.5 7 16.5 7 15.5 7 14.5 7 14.5 8 15.5 8 16.5 8"/><rect x="6.5" y="8" width="1" height="1"/><rect x="11.5" y="8" width="1" height="1"/><rect x="13.5" y="8" width="1" height="1"/><rect x="18.5" y="8" width="1" height="1"/><rect x="12.5" y="9" width="1" height="1"/><polygon points="19.5 9 19.5 10 19.5 11 19.5 12 19.5 13 20.5 13 20.5 12 20.5 11 20.5 10 20.5 9 19.5 9"/><polygon points="6.5 11 6.5 10 6.5 9 5.5 9 5.5 10 5.5 11 5.5 12 5.5 13 6.5 13 6.5 12 6.5 11"/><rect x="6.5" y="13" width="1" height="1"/><rect x="18.5" y="13" width="1" height="1"/><rect x="7.5" y="14" width="1" height="1"/><rect x="17.5" y="14" width="1" height="1"/><rect x="8.5" y="15" width="1" height="1"/><rect x="16.5" y="15" width="1" height="1"/><rect x="9.5" y="16" width="1" height="1"/><rect x="15.5" y="16" width="1" height="1"/><rect x="10.5" y="17" width="1" height="1"/><rect x="14.5" y="17" width="1" height="1"/><rect x="11.5" y="18" width="1" height="1"/><rect x="13.5" y="18" width="1" height="1"/><rect x="12.5" y="19" width="1" height="1"/><polygon class="cls-4" points="33.5 10.5 33.5 9.5 33.5 8.5 32.5 8.5 32.5 7.5 32.5 6.5 31.5 6.5 31.5 5.5 30.5 5.5 30.5 4.5 29.5 4.5 28.5 4.5 28.5 3.5 27.5 3.5 26.5 3.5 26.5 2.5 25.5 2.5 24.5 2.5 23.5 2.5 22.5 2.5 22.5 3.5 21.5 3.5 20.5 3.5 20.5 4.5 19.5 4.5 18.5 4.5 18.5 5.5 17.5 5.5 17.5 6.5 16.5 6.5 16.5 7.5 16.5 8.5 15.5 8.5 15.5 9.5 15.5 10.5 14.5 10.5 14.5 11.5 14.5 12.5 14.5 13.5 14.5 14.5 15.5 14.5 15.5 15.5 15.5 16.5 16.5 16.5 16.5 17.5 16.5 18.5 17.5 18.5 17.5 19.5 18.5 19.5 18.5 20.5 19.5 20.5 20.5 20.5 20.5 21.5 21.5 21.5 22.5 21.5 22.5 22.5 23.5 22.5 24.5 22.5 25.5 22.5 26.5 22.5 26.5 21.5 27.5 21.5 28.5 21.5 28.5 20.5 29.5 20.5 30.5 20.5 30.5 19.5 31.5 19.5 31.5 18.5 32.5 18.5 32.5 17.5 32.5 16.5 33.5 16.5 33.5 15.5 33.5 14.5 34.5 14.5 34.5 13.5 34.5 12.5 34.5 11.5 34.5 10.5 33.5 10.5"/><polygon class="cls-2" points="28 8.5 27 8.5 26 8.5 25 8.5 24 8.5 23 8.5 22 8.5 21 8.5 20 8.5 20 9.5 20 10.5 21 10.5 22 10.5 23 10.5 23 11.5 22 11.5 21 11.5 21 12.5 22 12.5 23 12.5 23 13.5 24 13.5 25 13.5 26 13.5 26 12.5 27 12.5 28 12.5 28 11.5 27 11.5 26 11.5 26 10.5 27 10.5 28 10.5 29 10.5 29 9.5 29 8.5 28 8.5"/><rect class="cls-2" x="20" y="12.5" width="1" height="1"/><rect class="cls-2" x="28" y="12.5" width="1" height="1"/><rect class="cls-2" x="21" y="13.5" width="1" height="1"/><rect class="cls-2" x="27" y="13.5" width="1" height="1"/><polygon class="cls-2" points="25 14.5 24 14.5 23 14.5 22 14.5 22 15.5 23 15.5 23 16.5 23 17.5 23 18.5 24 18.5 25 18.5 26 18.5 26 17.5 26 16.5 26 15.5 27 15.5 27 14.5 26 14.5 25 14.5"/></svg>