<?xml version="1.0" encoding="UTF-8"?><svg id="Layer_1" xmlns="http://www.w3.org/2000/svg" xmlns:xlink="http://www.w3.org/1999/xlink" viewBox="0 0 38 25"><defs><style>.cls-1{fill:#ec1e24;}.cls-2{fill:#fff;}.cls-3{fill:#ffbbed;}.cls-4{fill:red;}.cls-5{fill:#449b00;}.cls-6{filter:url(#drop-shadow-7);}</style><filter id="drop-shadow-7" filterUnits="userSpaceOnUse"><feOffset dx="-.2" dy=".2"/><feGaussianBlur result="blur" stdDeviation="1"/><feFlood flood-color="#231f20" flood-opacity=".75"/><feComposite in2="blur" operator="in"/><feComposite in="SourceGraphic"/></filter></defs><polygon class="cls-3" points="22 10.5 22 9.5 22 8.5 21 8.5 21 7.5 21 6.5 20 6.5 20 5.5 19 5.5 19 4.5 18 4.5 17 4.5 17 3.5 16 3.5 15 3.5 15 2.5 14 2.5 13 2.5 12 2.5 11 2.5 11 3.5 10 3.5 9 3.5 9 4.5 8 4.5 7 4.5 7 5.5 6 5.5 6 6.5 5 6.5 5 7.5 5 8.5 4 8.5 4 9.5 4 10.5 3 10.5 3 11.5 3 12.5 3 13.5 3 14.5 4 14.5 4 15.5 4 16.5 5 16.5 5 17.5 5 18.5 6 18.5 6 19.5 7 19.5 7 20.5 8 20.5 9 20.5 9 21.5 10 21.5 11 21.5 11 22.5 12 22.5 13 22.5 14 22.5 15 22.5 15 21.5 16 21.5 17 21.5 17 20.5 18 20.5 19 20.5 19 19.5 20 19.5 20 18.5 21 18.5 21 17.5 21 16.5 22 16.5 22 15.5 22 14.5 23 14.5 23 13.5 23 12.5 23 11.5 23 10.5 22 10.5"/><polygon class="cls-2" points="9.5 9 8.5 9 8.5 10 7.5 10 7.5 11 7.5 12 8.5 12 8.5 11 9.5 11 9.5 10 10.5 10 10.5 9 9.5 9"/><path class="cls-1" d="m18.5,9v-1h-4v1h-1v1h-1v-1h-1v-1h-4v1h-1v4h1v1h1v1h1v1h1v1h1v1h1v1h1v-1h1v-1h1v-1h1v-1h1v-1h1v-1h1v-4h-1Zm-11,2v-1h1v-1h2v1h-1v1h-1v1h-1v-1Z"/><polygon points="9.5 8 10.5 8 11.5 8 11.5 7 10.5 7 9.5 7 8.5 7 7.5 7 7.5 8 8.5 8 9.5 8"/><polygon points="16.5 8 17.5 8 18.5 8 18.5 7 17.5 7 16.5 7 15.5 7 14.5 7 14.5 8 15.5 8 16.5 8"/><rect x="6.5" y="8" width="1" height="1"/><rect x="11.5" y="8" width="1" height="1"/><rect x="13.5" y="8" width="1" height="1"/><rect x="18.5" y="8" width="1" height="1"/><rect x="12.5" y="9" width="1" height="1"/><polygon points="19.5 9 19.5 10 19.5 11 19.5 12 19.5 13 20.5 13 20.5 12 20.5 11 20.5 10 20.5 9 19.5 9"/><polygon points="6.5 11 6.5 10 6.5 9 5.5 9 5.5 10 5.5 11 5.5 12 5.5 13 6.5 13 6.5 12 6.5 11"/><rect x="6.5" y="13" width="1" height="1"/><rect x="18.5" y="13" width="1" height="1"/><rect x="7.5" y="14" width="1" height="1"/><rect x="17.5" y="14" width="1" height="1"/><rect x="8.5" y="15" width="1" height="1"/><rect x="16.5" y="15" width="1" height="1"/><rect x="9.5" y="16" width="1" height="1"/><rect x="15.5" y="16" width="1" height="1"/><rect x="10.5" y="17" width="1" height="1"/><rect x="14.5" y="17" width="1" height="1"/><rect x="11.5" y="18" width="1" height="1"/><rect x="13.5" y="18" width="1" height="1"/><rect x="12.5" y="19" width="1" height="1"/><g class="cls-6"><rect class="cls-5" x="33" y="12.5" width="1" height="1"/><rect class="cls-5" x="25" y="15.5" width="1" height="1"/><path class="cls-5" d="m34,10.5v-2h-1v-2h-1v-1h-1v-1h-2v-1h-2v-1h-4v1h-2v1h-2v1h-1v1h-1v2h-1v2h-1v4h1v2h1v2h1v1h1v1h2v1h2v1h4v-1h2v-1h2v-1h1v-1h1v-2h1v-2h1v-4h-1Zm-9,6v-1h1v1h-1Zm9-3h-1v-1h1v1Z"/><rect class="cls-2" x="28" y="10.5" width="1" height="1"/><rect class="cls-2" x="23" y="10.5" width="1" height="1"/><rect class="cls-2" x="25" y="10.5" width="1" height="1"/><polygon class="cls-4" points="30 9.5 29 9.5 29 10.5 30 10.5 31 10.5 31 9.5 30 9.5"/><polygon class="cls-4" points="29 7.5 29 6.5 28 6.5 27 6.5 27 5.5 26 5.5 25 5.5 25 6.5 24 6.5 23 6.5 22 6.5 21 6.5 21 7.5 21 8.5 21 9.5 22 9.5 23 9.5 24 9.5 25 9.5 26 9.5 27 9.5 28 9.5 29 9.5 29 8.5 29 7.5"/><rect class="cls-4" x="22" y="12.5" width="1" height="1"/><polygon class="cls-4" points="29 13.5 28 13.5 27 13.5 26 13.5 25 13.5 24 13.5 23 13.5 23 14.5 24 14.5 25 14.5 26 14.5 27 14.5 28 14.5 29 14.5 30 14.5 30 13.5 30 12.5 29 12.5 29 13.5"/><rect class="cls-5" x="22" y="9.5" width="1" height="1"/><polygon class="cls-5" points="28 11.5 27 11.5 27 10.5 27 9.5 26 9.5 26 10.5 26 11.5 25 11.5 24 11.5 23 11.5 22 11.5 21 11.5 21 12.5 21 13.5 20 13.5 20 14.5 20 15.5 20 16.5 21 16.5 21 17.5 22 17.5 23 17.5 24 17.5 25 17.5 26 17.5 27 17.5 28 17.5 29 17.5 29 16.5 29 15.5 29 14.5 28 14.5 27 14.5 26 14.5 25 14.5 24 14.5 23 14.5 23 13.5 22 13.5 22 12.5 23 12.5 23 13.5 24 13.5 25 13.5 26 13.5 27 13.5 28 13.5 29 13.5 29 12.5 29 11.5 28 11.5"/><polygon points="28 9.5 27 9.5 27 10.5 27 11.5 28 11.5 28 10.5 29 10.5 29 9.5 28 9.5"/><polygon points="29 10.5 29 11.5 29 12.5 30 12.5 30 11.5 30 10.5 29 10.5"/><polygon points="23 11.5 23 10.5 22 10.5 22 9.5 21 9.5 21 10.5 21 11.5 22 11.5 23 11.5"/><polygon points="24 11.5 25 11.5 25 10.5 26 10.5 26 9.5 25 9.5 24 9.5 23 9.5 23 10.5 24 10.5 24 11.5"/><polygon points="29 15.5 29 16.5 29 17.5 30 17.5 30 16.5 30 15.5 30 14.5 29 14.5 29 15.5"/><polygon points="27 17.5 26 17.5 25 17.5 24 17.5 23 17.5 22 17.5 21 17.5 21 18.5 22 18.5 23 18.5 24 18.5 25 18.5 26 18.5 27 18.5 28 18.5 29 18.5 29 17.5 28 17.5 27 17.5"/><rect x="20" y="16.5" width="1" height="1"/><polygon points="20 14.5 20 13.5 19 13.5 19 14.5 19 15.5 19 16.5 20 16.5 20 15.5 20 14.5"/><polygon points="21 12.5 21 11.5 20 11.5 20 12.5 20 13.5 21 13.5 21 12.5"/></g></svg>