<?xml version="1.0" encoding="UTF-8"?><svg id="Layer_1" xmlns="http://www.w3.org/2000/svg" xmlns:xlink="http://www.w3.org/1999/xlink" viewBox="0 0 38 25"><defs><style>.cls-1{fill:#ec1e24;}.cls-2{fill:#fff;}.cls-3{fill:#f6921e;}.cls-4{fill:#ffbbed;}.cls-5{fill:#5a5564;}.cls-6{filter:url(#drop-shadow-5);}</style><filter id="drop-shadow-5" filterUnits="userSpaceOnUse"><feOffset dx="-.2" dy=".2"/><feGaussianBlur result="blur" stdDeviation="1"/><feFlood flood-color="#231f20" flood-opacity=".75"/><feComposite in2="blur" operator="in"/><feComposite in="SourceGraphic"/></filter></defs><polygon class="cls-4" points="22 10.5 22 9.5 22 8.5 21 8.5 21 7.5 21 6.5 20 6.5 20 5.5 19 5.5 19 4.5 18 4.5 17 4.5 17 3.5 16 3.5 15 3.5 15 2.5 14 2.5 13 2.5 12 2.5 11 2.5 11 3.5 10 3.5 9 3.5 9 4.5 8 4.5 7 4.5 7 5.5 6 5.5 6 6.5 5 6.5 5 7.5 5 8.5 4 8.5 4 9.5 4 10.5 3 10.5 3 11.5 3 12.5 3 13.5 3 14.5 4 14.5 4 15.5 4 16.5 5 16.5 5 17.5 5 18.5 6 18.5 6 19.5 7 19.5 7 20.5 8 20.5 9 20.5 9 21.5 10 21.5 11 21.5 11 22.5 12 22.5 13 22.5 14 22.5 15 22.5 15 21.5 16 21.5 17 21.5 17 20.5 18 20.5 19 20.5 19 19.5 20 19.5 20 18.5 21 18.5 21 17.5 21 16.5 22 16.5 22 15.5 22 14.5 23 14.5 23 13.5 23 12.5 23 11.5 23 10.5 22 10.5"/><polygon class="cls-2" points="9.5 9 8.5 9 8.5 10 7.5 10 7.5 11 7.5 12 8.5 12 8.5 11 9.5 11 9.5 10 10.5 10 10.5 9 9.5 9"/><path class="cls-1" d="m18.5,9v-1h-4v1h-1v1h-1v-1h-1v-1h-4v1h-1v4h1v1h1v1h1v1h1v1h1v1h1v1h1v-1h1v-1h1v-1h1v-1h1v-1h1v-1h1v-4h-1Zm-11,2v-1h1v-1h2v1h-1v1h-1v1h-1v-1Z"/><polygon points="9.5 8 10.5 8 11.5 8 11.5 7 10.5 7 9.5 7 8.5 7 7.5 7 7.5 8 8.5 8 9.5 8"/><polygon points="16.5 8 17.5 8 18.5 8 18.5 7 17.5 7 16.5 7 15.5 7 14.5 7 14.5 8 15.5 8 16.5 8"/><rect x="6.5" y="8" width="1" height="1"/><rect x="11.5" y="8" width="1" height="1"/><rect x="13.5" y="8" width="1" height="1"/><rect x="18.5" y="8" width="1" height="1"/><rect x="12.5" y="9" width="1" height="1"/><polygon points="19.5 9 19.5 10 19.5 11 19.5 12 19.5 13 20.5 13 20.5 12 20.5 11 20.5 10 20.5 9 19.5 9"/><polygon points="6.5 11 6.5 10 6.5 9 5.5 9 5.5 10 5.5 11 5.5 12 5.5 13 6.5 13 6.5 12 6.5 11"/><rect x="6.5" y="13" width="1" height="1"/><rect x="18.5" y="13" width="1" height="1"/><rect x="7.5" y="14" width="1" height="1"/><rect x="17.5" y="14" width="1" height="1"/><rect x="8.5" y="15" width="1" height="1"/><rect x="16.5" y="15" width="1" height="1"/><rect x="9.5" y="16" width="1" height="1"/><rect x="15.5" y="16" width="1" height="1"/><rect x="10.5" y="17" width="1" height="1"/><rect x="14.5" y="17" width="1" height="1"/><rect x="11.5" y="18" width="1" height="1"/><rect x="13.5" y="18" width="1" height="1"/><rect x="12.5" y="19" width="1" height="1"/><g class="cls-6"><polygon class="cls-2" points="32 10.5 32 9.5 32 8.5 31 8.5 31 7.5 32 7.5 32 6.5 31 6.5 31 5.5 30 5.5 30 6.5 29 6.5 29 5.5 28 5.5 27 5.5 27 4.5 26 4.5 25 4.5 24 4.5 23 4.5 23 5.5 22 5.5 21 5.5 21 6.5 20 6.5 20 5.5 19 5.5 19 6.5 18 6.5 18 7.5 19 7.5 19 8.5 18 8.5 18 9.5 18 10.5 17 10.5 17 11.5 17 12.5 17 13.5 17 14.5 18 14.5 18 15.5 18 16.5 19 16.5 19 17.5 18 17.5 18 18.5 19 18.5 19 19.5 20 19.5 20 18.5 21 18.5 21 19.5 22 19.5 23 19.5 23 20.5 24 20.5 25 20.5 26 20.5 27 20.5 27 19.5 28 19.5 29 19.5 29 18.5 30 18.5 30 19.5 31 19.5 31 18.5 32 18.5 32 17.5 31 17.5 31 16.5 32 16.5 32 15.5 32 14.5 33 14.5 33 13.5 33 12.5 33 11.5 33 10.5 32 10.5"/><polygon class="cls-5" points="33 10.5 33 11.5 33 12.5 33 13.5 33 14.5 34 14.5 34 13.5 34 12.5 34 11.5 34 10.5 33 10.5"/><polygon class="cls-5" points="33 8.5 32 8.5 32 9.5 32 10.5 33 10.5 33 9.5 33 8.5"/><rect class="cls-5" x="29" y="5.5" width="1" height="1"/><polygon class="cls-5" points="28 4.5 27 4.5 27 5.5 28 5.5 29 5.5 29 4.5 28 4.5"/><polygon class="cls-5" points="26 3.5 25 3.5 24 3.5 23 3.5 23 4.5 24 4.5 25 4.5 26 4.5 27 4.5 27 3.5 26 3.5"/><polygon class="cls-5" points="21 4.5 21 5.5 22 5.5 23 5.5 23 4.5 22 4.5 21 4.5"/><rect class="cls-5" x="20" y="5.5" width="1" height="1"/><polygon class="cls-5" points="17 9.5 17 10.5 18 10.5 18 9.5 18 8.5 17 8.5 17 9.5"/><polygon class="cls-5" points="16 11.5 16 12.5 16 13.5 16 14.5 17 14.5 17 13.5 17 12.5 17 11.5 17 10.5 16 10.5 16 11.5"/><rect class="cls-5" x="31" y="7.5" width="1" height="1"/><rect class="cls-5" x="18" y="7.5" width="1" height="1"/><polygon class="cls-5" points="32 15.5 32 16.5 33 16.5 33 15.5 33 14.5 32 14.5 32 15.5"/><rect class="cls-5" x="31" y="16.5" width="1" height="1"/><rect class="cls-5" x="18" y="16.5" width="1" height="1"/><rect class="cls-5" x="29" y="18.5" width="1" height="1"/><polygon class="cls-5" points="27 19.5 27 20.5 28 20.5 29 20.5 29 19.5 28 19.5 27 19.5"/><polygon class="cls-5" points="25 20.5 24 20.5 23 20.5 23 21.5 24 21.5 25 21.5 26 21.5 27 21.5 27 20.5 26 20.5 25 20.5"/><polygon class="cls-5" points="22 19.5 21 19.5 21 20.5 22 20.5 23 20.5 23 19.5 22 19.5"/><rect class="cls-5" x="20" y="18.5" width="1" height="1"/><polygon class="cls-5" points="17 16.5 18 16.5 18 15.5 18 14.5 17 14.5 17 15.5 17 16.5"/><polygon points="25 21.5 24 21.5 23 21.5 23 22.5 24 22.5 25 22.5 26 22.5 27 22.5 27 21.5 26 21.5 25 21.5"/><polygon points="27 20.5 27 21.5 28 21.5 29 21.5 29 20.5 28 20.5 27 20.5"/><polygon points="29 19.5 29 20.5 30 20.5 31 20.5 31 19.5 30 19.5 29 19.5"/><rect x="31" y="18.5" width="1" height="1"/><polygon points="32 17.5 32 18.5 33 18.5 33 17.5 33 16.5 32 16.5 32 17.5"/><polygon points="33 15.5 33 16.5 34 16.5 34 15.5 34 14.5 33 14.5 33 15.5"/><polygon points="34 10.5 34 11.5 34 12.5 34 13.5 34 14.5 35 14.5 35 13.5 35 12.5 35 11.5 35 10.5 34 10.5"/><polygon points="33 10.5 34 10.5 34 9.5 34 8.5 33 8.5 33 9.5 33 10.5"/><polygon points="32 8.5 33 8.5 33 7.5 33 6.5 32 6.5 32 7.5 32 8.5"/><rect x="31" y="5.5" width="1" height="1"/><polygon points="30 5.5 31 5.5 31 4.5 30 4.5 29 4.5 29 5.5 30 5.5"/><polygon points="28 4.5 29 4.5 29 3.5 28 3.5 27 3.5 27 4.5 28 4.5"/><polygon points="25 3.5 26 3.5 27 3.5 27 2.5 26 2.5 25 2.5 24 2.5 23 2.5 23 3.5 24 3.5 25 3.5"/><polygon points="23 4.5 23 3.5 22 3.5 21 3.5 21 4.5 22 4.5 23 4.5"/><polygon points="21 5.5 21 4.5 20 4.5 19 4.5 19 5.5 20 5.5 21 5.5"/><rect x="18" y="5.5" width="1" height="1"/><polygon points="18 7.5 18 6.5 17 6.5 17 7.5 17 8.5 18 8.5 18 7.5"/><polygon points="17 9.5 17 8.5 16 8.5 16 9.5 16 10.5 17 10.5 17 9.5"/><polygon points="16 12.5 16 11.5 16 10.5 15 10.5 15 11.5 15 12.5 15 13.5 15 14.5 16 14.5 16 13.5 16 12.5"/><polygon points="17 14.5 16 14.5 16 15.5 16 16.5 17 16.5 17 15.5 17 14.5"/><polygon points="18 16.5 17 16.5 17 17.5 17 18.5 18 18.5 18 17.5 18 16.5"/><rect x="18" y="18.5" width="1" height="1"/><polygon points="20 19.5 19 19.5 19 20.5 20 20.5 21 20.5 21 19.5 20 19.5"/><polygon points="22 20.5 21 20.5 21 21.5 22 21.5 23 21.5 23 20.5 22 20.5"/><path class="cls-3" d="m28,9.5v-1h-2v-2h-1v2h-1v-2h-1v2h-2v1h1v6h-1v1h2v2h1v-2h1v2h1v-2h2v-1h1v-3h-1v-1h1v-2h-1Zm0,4v1h-1v1h-3v-3h3v1h1Zm-2-2h-2v-2h3v2h-1Z"/></g></svg>