<?xml version="1.0" encoding="UTF-8"?><svg id="Layer_1" xmlns="http://www.w3.org/2000/svg" viewBox="0 0 38 25"><defs><style>.cls-1{fill:#ec1e24;}.cls-2{fill:#fff;}.cls-3{fill:#ffbbed;}.cls-4{fill:#d10024;}.cls-5{fill:#ae6f4f;}.cls-6{fill:#592c18;}.cls-7{fill:#764328;}</style></defs><polygon class="cls-3" points="22 10.5 22 9.5 22 8.5 21 8.5 21 7.5 21 6.5 20 6.5 20 5.5 19 5.5 19 4.5 18 4.5 17 4.5 17 3.5 16 3.5 15 3.5 15 2.5 14 2.5 13 2.5 12 2.5 11 2.5 11 3.5 10 3.5 9 3.5 9 4.5 8 4.5 7 4.5 7 5.5 6 5.5 6 6.5 5 6.5 5 7.5 5 8.5 4 8.5 4 9.5 4 10.5 3 10.5 3 11.5 3 12.5 3 13.5 3 14.5 4 14.5 4 15.5 4 16.5 5 16.5 5 17.5 5 18.5 6 18.5 6 19.5 7 19.5 7 20.5 8 20.5 9 20.5 9 21.5 10 21.5 11 21.5 11 22.5 12 22.5 13 22.5 14 22.5 15 22.5 15 21.5 16 21.5 17 21.5 17 20.5 18 20.5 19 20.5 19 19.5 20 19.5 20 18.5 21 18.5 21 17.5 21 16.5 22 16.5 22 15.5 22 14.5 23 14.5 23 13.5 23 12.5 23 11.5 23 10.5 22 10.5"/><polygon class="cls-2" points="9.5 9 8.5 9 8.5 10 7.5 10 7.5 11 7.5 12 8.5 12 8.5 11 9.5 11 9.5 10 10.5 10 10.5 9 9.5 9"/><path class="cls-1" d="m18.5,9v-1h-4v1h-1v1h-1v-1h-1v-1h-4v1h-1v4h1v1h1v1h1v1h1v1h1v1h1v1h1v-1h1v-1h1v-1h1v-1h1v-1h1v-1h1v-4h-1Zm-11,2v-1h1v-1h2v1h-1v1h-1v1h-1v-1Z"/><polygon points="9.5 8 10.5 8 11.5 8 11.5 7 10.5 7 9.5 7 8.5 7 7.5 7 7.5 8 8.5 8 9.5 8"/><polygon points="16.5 8 17.5 8 18.5 8 18.5 7 17.5 7 16.5 7 15.5 7 14.5 7 14.5 8 15.5 8 16.5 8"/><rect x="6.5" y="8" width="1" height="1"/><rect x="11.5" y="8" width="1" height="1"/><rect x="13.5" y="8" width="1" height="1"/><rect x="18.5" y="8" width="1" height="1"/><rect x="12.5" y="9" width="1" height="1"/><polygon points="19.5 9 19.5 10 19.5 11 19.5 12 19.5 13 20.5 13 20.5 12 20.5 11 20.5 10 20.5 9 19.5 9"/><polygon points="6.5 11 6.5 10 6.5 9 5.5 9 5.5 10 5.5 11 5.5 12 5.5 13 6.5 13 6.5 12 6.5 11"/><rect x="6.5" y="13" width="1" height="1"/><rect x="18.5" y="13" width="1" height="1"/><rect x="7.5" y="14" width="1" height="1"/><rect x="17.5" y="14" width="1" height="1"/><rect x="8.5" y="15" width="1" height="1"/><rect x="16.5" y="15" width="1" height="1"/><rect x="9.5" y="16" width="1" height="1"/><rect x="15.5" y="16" width="1" height="1"/><rect x="10.5" y="17" width="1" height="1"/><rect x="14.5" y="17" width="1" height="1"/><rect x="11.5" y="18" width="1" height="1"/><rect x="13.5" y="18" width="1" height="1"/><rect x="12.5" y="19" width="1" height="1"/><polygon class="cls-4" points="33.5 10.5 33.5 9.5 33.5 8.5 32.5 8.5 32.5 7.5 32.5 6.5 31.5 6.5 31.5 5.5 30.5 5.5 30.5 4.5 29.5 4.5 28.5 4.5 28.5 3.5 27.5 3.5 26.5 3.5 26.5 2.5 25.5 2.5 24.5 2.5 23.5 2.5 22.5 2.5 22.5 3.5 21.5 3.5 20.5 3.5 20.5 4.5 19.5 4.5 18.5 4.5 18.5 5.5 17.5 5.5 17.5 6.5 16.5 6.5 16.5 7.5 16.5 8.5 15.5 8.5 15.5 9.5 15.5 10.5 14.5 10.5 14.5 11.5 14.5 12.5 14.5 13.5 14.5 14.5 15.5 14.5 15.5 15.5 15.5 16.5 16.5 16.5 16.5 17.5 16.5 18.5 17.5 18.5 17.5 19.5 18.5 19.5 18.5 20.5 19.5 20.5 20.5 20.5 20.5 21.5 21.5 21.5 22.5 21.5 22.5 22.5 23.5 22.5 24.5 22.5 25.5 22.5 26.5 22.5 26.5 21.5 27.5 21.5 28.5 21.5 28.5 20.5 29.5 20.5 30.5 20.5 30.5 19.5 31.5 19.5 31.5 18.5 32.5 18.5 32.5 17.5 32.5 16.5 33.5 16.5 33.5 15.5 33.5 14.5 34.5 14.5 34.5 13.5 34.5 12.5 34.5 11.5 34.5 10.5 33.5 10.5"/><polygon class="cls-5" points="27.5 21 27 21 27 20.5 26.5 20.5 26 20.5 25.5 20.5 25 20.5 24.5 20.5 24 20.5 23.5 20.5 23.5 21 23 21 22.5 21 22.5 21.5 22.5 22 22.5 22.5 23 22.5 23.5 22.5 24 22.5 24.5 22.5 25 22.5 25.5 22.5 26 22.5 26.5 22.5 26.5 22 26.5 21.5 27 21.5 27.5 21.5 28 21.5 28 21 27.5 21"/><path class="cls-6" d="m29.5,14v-.5h-.5v-.5h-3.5v1h-.5v.5h-.5v2.5h.5v.5h1v.5h3v-.5h.5v-.5h.5v-3h-.5Zm-2.5-.5h1.5v.5h-.5v.5h-1v-.5h-.5v-.5h.5Zm2.5,2h-.5v.5h-3v-.5h-.5v-.5h.5v.5h3v-.5h.5v.5Z"/><polygon class="cls-2" points="26.5 10.5 26.5 10 26 10 25.5 10 25 10 25 10.5 25.5 10.5 25.5 11 25.5 11.5 26 11.5 26.5 11.5 27 11.5 27 11 26.5 11 26.5 10.5"/><polygon class="cls-2" points="27.5 11 27.5 11.5 28 11.5 28 11 28 10.5 27.5 10.5 27.5 11"/><polygon class="cls-2" points="30.5 10.5 30.5 10 30 10 29.5 10 29.5 10.5 30 10.5 30 11 30 11.5 30.5 11.5 30.5 11 31 11 31 10.5 30.5 10.5"/><polygon class="cls-2" points="22 10 22 10.5 22.5 10.5 23 10.5 23 10 22.5 10 22 10"/><rect class="cls-2" x="28" y="10" width=".5" height=".5"/><polygon class="cls-7" points="31.5 18 31.5 17.5 31 17.5 30.5 17.5 30.5 18 30 18 30 18.5 29.5 18.5 29.5 19 29 19 29 19.5 28.5 19.5 28 19.5 27.5 19.5 27 19.5 26.5 19.5 26 19.5 26 19 25.5 19 25 19 24.5 19 24.5 18.5 24 18.5 23.5 18.5 23 18.5 22.5 18.5 22.5 18 22 18 21.5 18 21.5 17.5 21 17.5 20.5 17.5 20.5 17 20 17 20 16.5 20.5 16.5 20.5 17 21 17 21.5 17 21.5 17.5 22 17.5 22.5 17.5 22.5 18 23 18 23.5 18 24 18 24.5 18 24.5 18.5 25 18.5 25.5 18.5 26 18.5 26 19 26.5 19 27 19 27.5 19 28 19 28.5 19 29 19 29 18.5 29.5 18.5 29.5 18 30 18 30 17.5 30.5 17.5 30.5 17 30.5 16.5 30.5 16 31 16 31 15.5 31 15 31 14.5 31 14 31 13.5 31 13 31 12.5 30.5 12.5 30.5 13 30 13 30 12.5 30.5 12.5 30.5 12 30.5 11.5 30 11.5 29.5 11.5 29 11.5 28.5 11.5 28 11.5 27.5 11.5 27.5 11 27.5 10.5 28 10.5 28 10 28.5 10 29 10 29.5 10 30 10 30.5 10 30.5 10.5 31 10.5 31 10 31 9.5 30.5 9.5 30.5 9 30 9 29.5 9 29 9 28.5 9 28.5 9.5 28 9.5 28 9 28.5 9 28.5 8.5 29 8.5 29.5 8.5 30 8.5 30 8 29.5 8 29.5 7.5 29 7.5 28.5 7.5 28 7.5 27.5 7.5 27 7.5 27 7 27.5 7 28 7 28.5 7 29 7 29.5 7 29.5 6.5 30 6.5 30 6 29.5 6 29 6 28.5 6 28.5 6.5 28 6.5 28 6 27.5 6 27 6 26.5 6 26.5 6.5 26 6.5 26 7 26 7.5 26.5 7.5 26.5 8 27 8 27 8.5 27 9 27.5 9 27.5 9.5 27.5 10 27 10 27 10.5 26.5 10.5 26.5 11 27 11 27 11.5 27 12 26.5 12 26.5 12.5 26 12.5 26 13 26.5 13 27 13 27.5 13 28 13 28.5 13 29 13 29 12.5 28.5 12.5 28 12.5 27.5 12.5 27.5 12 28 12 28.5 12 29 12 29 12.5 29.5 12.5 29.5 13 29 13 29 13.5 29.5 13.5 29.5 14 30 14 30 14.5 30 15 30 15.5 30 16 30 16.5 30 17 29.5 17 29.5 17.5 29 17.5 29 18 28.5 18 28 18 27.5 18 27 18 26.5 18 26 18 26 17.5 25.5 17.5 25 17.5 25 17 24.5 17 24.5 16.5 24.5 16 24.5 15.5 24.5 15 24.5 14.5 25 14.5 25 14 25.5 14 25.5 13.5 25 13.5 24.5 13.5 24.5 13 25 13 25.5 13 25.5 12.5 25 12.5 24.5 12.5 24 12.5 23.5 12.5 23.5 12 23 12 22.5 12 22.5 11.5 22 11.5 22 11 22.5 11 22.5 11.5 23 11.5 23.5 11.5 23.5 12 24 12 24.5 12 25 12 25.5 12 26 12 26.5 12 26.5 11.5 26 11.5 25.5 11.5 25 11.5 24.5 11.5 24 11.5 24 11 23.5 11 23 11 23 10.5 22.5 10.5 22 10.5 22 10 22.5 10 23 10 23.5 10 24 10 24.5 10 25 10 25.5 10 26 10 26 9.5 25.5 9.5 25 9.5 25 9 24.5 9 24 9 23.5 9 23 9 22.5 9 22 9 22 9.5 21.5 9.5 21.5 10 21 10 21 9.5 21.5 9.5 21.5 9 22 9 22 8.5 22.5 8.5 23 8.5 23.5 8.5 24 8.5 24.5 8.5 25 8.5 25 9 25.5 9 26 9 26 9.5 26.5 9.5 26.5 10 27 10 27 9.5 27 9 26.5 9 26.5 8.5 26.5 8 26 8 26 7.5 25.5 7.5 25.5 7 25 7 24.5 7 24 7 23.5 7 23 7 23 7.5 22.5 7.5 22.5 7 23 7 23 6.5 23.5 6.5 24 6.5 24.5 6.5 25 6.5 25 6 24.5 6 24 6 23.5 6 23 6 22.5 6 22 6 22 6.5 21.5 6.5 21 6.5 20.5 6.5 20 6.5 20 7 20 7.5 20.5 7.5 20.5 8 20.5 8.5 20 8.5 20 9 20 9.5 19.5 9.5 19.5 10 19.5 10.5 19.5 11 19 11 19 11.5 19 12 18.5 12 18.5 12.5 18.5 13 18.5 13.5 18.5 14 18 14 18 14.5 18 15 17.5 15 17.5 15.5 17 15.5 17 16 17 16.5 16.5 16.5 16.5 17 16.5 17.5 16.5 18 16.5 18.5 17 18.5 17.5 18.5 17.5 19 17.5 19.5 18 19.5 18.5 19.5 18.5 20 18.5 20.5 19 20.5 19.5 20.5 20 20.5 20.5 20.5 20.5 21 20.5 21.5 21 21.5 21.5 21.5 22 21.5 22.5 21.5 22.5 21 23 21 23.5 21 23.5 20.5 24 20.5 24.5 20.5 25 20.5 25.5 20.5 26 20.5 26.5 20.5 27 20.5 27 21 27.5 21 28 21 28 21.5 28.5 21.5 28.5 21 28.5 20.5 29 20.5 29.5 20.5 30 20.5 30.5 20.5 30.5 20 30.5 19.5 31 19.5 31.5 19.5 31.5 19 31.5 18.5 32 18.5 32 18 31.5 18"/><polygon class="cls-7" points="31 12.5 31.5 12.5 31.5 12 31.5 11.5 31 11.5 31 12 31 12.5"/><rect class="cls-7" x="30.5" y="11" width=".5" height=".5"/><rect x="20" y="16.5" width=".5" height=".5"/><polygon points="21 17 20.5 17 20.5 17.5 21 17.5 21.5 17.5 21.5 17 21 17"/><polygon points="22 17.5 21.5 17.5 21.5 18 22 18 22.5 18 22.5 17.5 22 17.5"/><polygon points="24 18 23.5 18 23 18 22.5 18 22.5 18.5 23 18.5 23.5 18.5 24 18.5 24.5 18.5 24.5 18 24 18"/><rect x="29.5" y="18" width=".5" height=".5"/><rect x="30" y="17.5" width=".5" height=".5"/><polygon points="25.5 18.5 25 18.5 24.5 18.5 24.5 19 25 19 25.5 19 26 19 26 18.5 25.5 18.5"/><rect x="29" y="18.5" width=".5" height=".5"/><polygon points="28 19 27.5 19 27 19 26.5 19 26 19 26 19.5 26.5 19.5 27 19.5 27.5 19.5 28 19.5 28.5 19.5 29 19.5 29 19 28.5 19 28 19"/><polygon points="30.5 16.5 30.5 17 30.5 17.5 31 17.5 31 17 31 16.5 31 16 30.5 16 30.5 16.5"/><polygon points="16.5 16 16.5 16.5 17 16.5 17 16 17 15.5 16.5 15.5 16.5 16"/><polygon points="26.5 16 27 16 27.5 16 28 16 28.5 16 29 16 29 15.5 28.5 15.5 28 15.5 27.5 15.5 27 15.5 26.5 15.5 26 15.5 26 16 26.5 16"/><rect x="17" y="15" width=".5" height=".5"/><rect x="25.5" y="15" width=".5" height=".5"/><rect x="29" y="15" width=".5" height=".5"/><polygon points="17.5 14.5 17.5 15 18 15 18 14.5 18 14 17.5 14 17.5 14.5"/><polygon points="27 13.5 26.5 13.5 26.5 14 27 14 27 14.5 27.5 14.5 28 14.5 28 14 28.5 14 28.5 13.5 28 13.5 27.5 13.5 27 13.5"/><polygon points="24.5 13 24.5 13.5 25 13.5 25.5 13.5 25.5 13 25 13 24.5 13"/><polygon points="31 13.5 31 14 31 14.5 31 15 31 15.5 31 16 31.5 16 31.5 15.5 31.5 15 31.5 14.5 31.5 14 31.5 13.5 31.5 13 31.5 12.5 31 12.5 31 13 31 13.5"/><rect x="29" y="12.5" width=".5" height=".5"/><rect x="30" y="12.5" width=".5" height=".5"/><polygon points="18 12.5 18 13 18 13.5 18 14 18.5 14 18.5 13.5 18.5 13 18.5 12.5 18.5 12 18 12 18 12.5"/><polygon points="24 12.5 24.5 12.5 25 12.5 25.5 12.5 25.5 13 26 13 26 12.5 26.5 12.5 26.5 12 26 12 25.5 12 25 12 24.5 12 24 12 23.5 12 23.5 12.5 24 12.5"/><polygon points="27.5 12 27.5 12.5 28 12.5 28.5 12.5 29 12.5 29 12 28.5 12 28 12 27.5 12"/><polygon points="23 12 23.5 12 23.5 11.5 23 11.5 22.5 11.5 22.5 12 23 12"/><rect x="26.5" y="11.5" width=".5" height=".5"/><polygon points="30.5 12 30.5 12.5 31 12.5 31 12 31 11.5 30.5 11.5 30.5 12"/><polygon points="18.5 11.5 18.5 12 19 12 19 11.5 19 11 18.5 11 18.5 11.5"/><rect x="22" y="11" width=".5" height=".5"/><polygon points="24.5 10 24 10 23.5 10 23 10 23 10.5 23 11 23.5 11 24 11 24 11.5 24.5 11.5 25 11.5 25.5 11.5 25.5 11 25.5 10.5 25 10.5 25 10 24.5 10"/><rect x="26.5" y="10" width=".5" height=".5"/><polygon points="29 10 28.5 10 28.5 10.5 28 10.5 28 11 28 11.5 28.5 11.5 29 11.5 29.5 11.5 30 11.5 30 11 30 10.5 29.5 10.5 29.5 10 29 10"/><polygon points="19 10 19 10.5 19 11 19.5 11 19.5 10.5 19.5 10 19.5 9.5 19 9.5 19 10"/><rect x="21" y="9.5" width=".5" height=".5"/><rect x="26" y="9.5" width=".5" height=".5"/><polygon points="27 10 27.5 10 27.5 9.5 27.5 9 27 9 27 9.5 27 10"/><rect x="21.5" y="9" width=".5" height=".5"/><polygon points="25.5 9 25 9 25 9.5 25.5 9.5 26 9.5 26 9 25.5 9"/><rect x="28" y="9" width=".5" height=".5"/><polygon points="31 9 30.5 9 30.5 9.5 31 9.5 31 10 31 10.5 31 11 31 11.5 31.5 11.5 31.5 11 31.5 10.5 31.5 10 31.5 9.5 31.5 9 31 9"/><polygon points="19.5 9 19.5 9.5 20 9.5 20 9 20 8.5 19.5 8.5 19.5 9"/><polygon points="24.5 8.5 24 8.5 23.5 8.5 23 8.5 22.5 8.5 22 8.5 22 9 22.5 9 23 9 23.5 9 24 9 24.5 9 25 9 25 8.5 24.5 8.5"/><polygon points="26.5 9 27 9 27 8.5 27 8 26.5 8 26.5 8.5 26.5 9"/><polygon points="20 8.5 20.5 8.5 20.5 8 20.5 7.5 20 7.5 20 8 20 8.5"/><polygon points="30.5 8 30 8 30 8.5 29.5 8.5 29 8.5 28.5 8.5 28.5 9 29 9 29.5 9 30 9 30.5 9 30.5 8.5 30.5 8"/><rect x="26" y="7.5" width=".5" height=".5"/><rect x="29.5" y="7.5" width=".5" height=".5"/><rect x="22.5" y="7" width=".5" height=".5"/><polygon points="29 7 28.5 7 28 7 27.5 7 27 7 27 7.5 27.5 7.5 28 7.5 28.5 7.5 29 7.5 29.5 7.5 29.5 7 29 7"/><polygon points="30.5 7 30.5 6.5 30.5 6 30 6 30 6.5 29.5 6.5 29.5 7 30 7 30.5 7"/><polygon points="21 6 20.5 6 20 6 19.5 6 19.5 6.5 19.5 7 19.5 7.5 20 7.5 20 7 20 6.5 20.5 6.5 21 6.5 21.5 6.5 22 6.5 22 6 21.5 6 21 6"/><polygon points="25.5 6 25 6 25 6.5 24.5 6.5 24 6.5 23.5 6.5 23 6.5 23 7 23.5 7 24 7 24.5 7 25 7 25.5 7 25.5 7.5 26 7.5 26 7 26 6.5 25.5 6.5 25.5 6"/><rect x="28" y="6" width=".5" height=".5"/><polygon points="24.5 5.5 24 5.5 23.5 5.5 23 5.5 22.5 5.5 22 5.5 22 6 22.5 6 23 6 23.5 6 24 6 24.5 6 25 6 25 5.5 24.5 5.5"/><polygon points="27.5 5.5 27 5.5 26.5 5.5 26 5.5 26 6 26 6.5 26.5 6.5 26.5 6 27 6 27.5 6 28 6 28 5.5 27.5 5.5"/><polygon points="29.5 5.5 29 5.5 28.5 5.5 28.5 6 29 6 29.5 6 30 6 30 5.5 29.5 5.5"/></svg>