<?xml version="1.0" encoding="UTF-8"?><svg id="Layer_1" xmlns="http://www.w3.org/2000/svg" viewBox="0 0 38 25"><defs><style>.cls-1{fill:#007ef8;}.cls-2{fill:#ec1e24;}.cls-3{fill:#fff;}.cls-4{fill:#ffea00;}.cls-5{fill:#fefefe;}.cls-6{fill:#ffbbed;}.cls-7{fill:red;}.cls-8{fill:#ff8600;}.cls-9{fill:#80d100;}.cls-10{fill:#0d203d;}.cls-11{fill:#7fd000;}</style></defs><polygon class="cls-6" points="22 10.5 22 9.5 22 8.5 21 8.5 21 7.5 21 6.5 20 6.5 20 5.5 19 5.5 19 4.5 18 4.5 17 4.5 17 3.5 16 3.5 15 3.5 15 2.5 14 2.5 13 2.5 12 2.5 11 2.5 11 3.5 10 3.5 9 3.5 9 4.5 8 4.5 7 4.5 7 5.5 6 5.5 6 6.5 5 6.5 5 7.5 5 8.5 4 8.5 4 9.5 4 10.5 3 10.5 3 11.5 3 12.5 3 13.5 3 14.5 4 14.5 4 15.5 4 16.5 5 16.5 5 17.5 5 18.5 6 18.5 6 19.5 7 19.5 7 20.5 8 20.5 9 20.5 9 21.5 10 21.5 11 21.5 11 22.5 12 22.5 13 22.5 14 22.5 15 22.5 15 21.5 16 21.5 17 21.5 17 20.5 18 20.5 19 20.5 19 19.5 20 19.5 20 18.5 21 18.5 21 17.5 21 16.5 22 16.5 22 15.5 22 14.5 23 14.5 23 13.5 23 12.5 23 11.5 23 10.5 22 10.5"/><polygon class="cls-3" points="9.5 9 8.5 9 8.5 10 7.5 10 7.5 11 7.5 12 8.5 12 8.5 11 9.5 11 9.5 10 10.5 10 10.5 9 9.5 9"/><path class="cls-2" d="m18.5,9v-1h-4v1h-1v1h-1v-1h-1v-1h-4v1h-1v4h1v1h1v1h1v1h1v1h1v1h1v1h1v-1h1v-1h1v-1h1v-1h1v-1h1v-1h1v-4h-1Zm-11,2v-1h1v-1h2v1h-1v1h-1v1h-1v-1Z"/><polygon points="9.5 8 10.5 8 11.5 8 11.5 7 10.5 7 9.5 7 8.5 7 7.5 7 7.5 8 8.5 8 9.5 8"/><polygon points="16.5 8 17.5 8 18.5 8 18.5 7 17.5 7 16.5 7 15.5 7 14.5 7 14.5 8 15.5 8 16.5 8"/><rect x="6.5" y="8" width="1" height="1"/><rect x="11.5" y="8" width="1" height="1"/><rect x="13.5" y="8" width="1" height="1"/><rect x="18.5" y="8" width="1" height="1"/><rect x="12.5" y="9" width="1" height="1"/><polygon points="19.5 9 19.5 10 19.5 11 19.5 12 19.5 13 20.5 13 20.5 12 20.5 11 20.5 10 20.5 9 19.5 9"/><polygon points="6.5 11 6.5 10 6.5 9 5.5 9 5.5 10 5.5 11 5.5 12 5.5 13 6.5 13 6.5 12 6.5 11"/><rect x="6.5" y="13" width="1" height="1"/><rect x="18.5" y="13" width="1" height="1"/><rect x="7.5" y="14" width="1" height="1"/><rect x="17.5" y="14" width="1" height="1"/><rect x="8.5" y="15" width="1" height="1"/><rect x="16.5" y="15" width="1" height="1"/><rect x="9.5" y="16" width="1" height="1"/><rect x="15.5" y="16" width="1" height="1"/><rect x="10.5" y="17" width="1" height="1"/><rect x="14.5" y="17" width="1" height="1"/><rect x="11.5" y="18" width="1" height="1"/><rect x="13.5" y="18" width="1" height="1"/><rect x="12.5" y="19" width="1" height="1"/><polygon class="cls-10" points="33.5 10.5 33.5 9.5 33.5 8.5 32.5 8.5 32.5 7.5 32.5 6.5 31.5 6.5 31.5 5.5 30.5 5.5 30.5 4.5 29.5 4.5 28.5 4.5 28.5 3.5 27.5 3.5 26.5 3.5 26.5 2.5 25.5 2.5 24.5 2.5 23.5 2.5 22.5 2.5 22.5 3.5 21.5 3.5 20.5 3.5 20.5 4.5 19.5 4.5 18.5 4.5 18.5 5.5 17.5 5.5 17.5 6.5 16.5 6.5 16.5 7.5 16.5 8.5 15.5 8.5 15.5 9.5 15.5 10.5 14.5 10.5 14.5 11.5 14.5 12.5 14.5 13.5 14.5 14.5 15.5 14.5 15.5 15.5 15.5 16.5 16.5 16.5 16.5 17.5 16.5 18.5 17.5 18.5 17.5 19.5 18.5 19.5 18.5 20.5 19.5 20.5 20.5 20.5 20.5 21.5 21.5 21.5 22.5 21.5 22.5 22.5 23.5 22.5 24.5 22.5 25.5 22.5 26.5 22.5 26.5 21.5 27.5 21.5 28.5 21.5 28.5 20.5 29.5 20.5 30.5 20.5 30.5 19.5 31.5 19.5 31.5 18.5 32.5 18.5 32.5 17.5 32.5 16.5 33.5 16.5 33.5 15.5 33.5 14.5 34.5 14.5 34.5 13.5 34.5 12.5 34.5 11.5 34.5 10.5 33.5 10.5"/><rect class="cls-11" x="19.16" y="17.34" width=".33" height=".33"/><rect class="cls-11" x="18.5" y="18.67" width=".33" height=".33"/><polygon class="cls-11" points="19.83 18.67 19.83 18.34 19.83 18 19.83 17.67 19.5 17.67 19.5 18 19.16 18 19.16 17.67 18.83 17.67 18.83 18 18.83 18.34 18.83 18.67 19.16 18.67 19.16 18.34 19.5 18.34 19.5 18.67 19.83 18.67 19.83 19 20.16 19 20.16 18.67 19.83 18.67"/><rect class="cls-5" x="22.1" y="15.51" width=".33" height=".33"/><rect class="cls-5" x="22.43" y="15.51" width=".33" height=".33"/><rect class="cls-5" x="22.76" y="15.84" width=".33" height=".33"/><rect class="cls-5" x="22.76" y="16.18" width=".33" height=".33"/><rect class="cls-4" x="19.16" y="13.34" width=".33" height=".33"/><rect class="cls-4" x="18.5" y="14.67" width=".33" height=".33"/><polygon class="cls-4" points="19.83 14.34 19.83 14 19.83 13.67 19.5 13.67 19.5 14 19.16 14 19.16 13.67 18.83 13.67 18.83 14 18.83 14.34 18.83 14.67 19.16 14.67 19.16 14.34 19.5 14.34 19.5 14.67 19.83 14.67 19.83 15 20.16 15 20.16 14.67 19.83 14.67 19.83 14.34"/><polygon class="cls-4" points="25.75 10.19 26.08 10.19 26.08 10.53 26.42 10.53 26.42 10.19 26.42 9.86 26.42 9.53 26.08 9.53 25.75 9.53 25.42 9.53 25.42 9.86 25.75 9.86 25.75 10.19"/><path class="cls-4" d="m24.75,10.19h-1v.33h-.33v.33h-.33v.33h-.33v.33h-.33v.33h-.33v.33h-.33v-.66h.33v-.33h-.33v-.33h-.33v.33h-.33v1h.33v.33h1.33v.33h1.66v-.33h.33v-.33h.33v-1.66h-.33v-.33Zm-.33,1.33v.66h-.33v-1h.33v.33Z"/><polygon class="cls-4" points="29.08 13.85 29.08 13.52 28.74 13.52 28.41 13.52 28.41 13.85 28.41 14.18 28.08 14.18 28.08 14.51 27.75 14.51 27.75 14.85 28.08 14.85 28.41 14.85 28.74 14.85 29.08 14.85 29.41 14.85 29.41 14.51 29.41 14.18 29.41 13.85 29.08 13.85"/><rect class="cls-4" x="22.76" y="14.18" width=".33" height=".33"/><polygon class="cls-4" points="23.42 14.51 23.42 14.85 23.42 15.18 23.76 15.18 23.76 14.85 23.76 14.51 24.09 14.51 24.09 14.18 24.42 14.18 24.42 13.85 24.09 13.85 23.76 13.85 23.42 13.85 23.09 13.85 23.09 14.18 23.42 14.18 23.42 14.51"/><rect class="cls-4" x="24.42" y="14.18" width=".33" height=".33"/><polygon class="cls-4" points="26.42 14.18 26.08 14.18 25.75 14.18 25.42 14.18 25.42 14.51 25.42 14.85 25.75 14.85 25.75 15.18 26.08 15.18 26.08 14.85 26.42 14.85 26.75 14.85 26.75 14.51 26.42 14.51 26.42 14.18"/><polygon class="cls-4" points="24.42 14.51 24.09 14.51 24.09 14.85 24.09 15.18 24.42 15.18 24.42 14.85 24.42 14.51"/><polygon class="cls-4" points="24.75 14.85 24.75 15.18 24.42 15.18 24.42 15.51 24.09 15.51 24.09 15.18 23.76 15.18 23.76 15.51 23.42 15.51 23.09 15.51 22.76 15.51 22.76 15.84 23.09 15.84 23.09 16.18 23.42 16.18 23.76 16.18 24.09 16.18 24.42 16.18 24.42 15.84 24.75 15.84 24.75 15.51 25.09 15.51 25.09 15.18 25.09 14.85 25.09 14.51 24.75 14.51 24.75 14.85"/><polygon class="cls-4" points="23.09 15.18 23.09 14.85 22.76 14.85 22.76 14.51 22.43 14.51 22.43 14.85 22.43 15.18 22.43 15.51 22.76 15.51 22.76 15.18 23.09 15.18"/><polygon class="cls-4" points="22.1 15.84 21.76 15.84 21.76 15.51 21.43 15.51 21.1 15.51 21.1 15.84 21.1 16.18 21.1 16.51 21.43 16.51 21.43 16.84 21.76 16.84 22.1 16.84 22.43 16.84 22.43 16.51 22.76 16.51 22.76 16.18 22.76 15.84 22.43 15.84 22.1 15.84"/><rect class="cls-4" x="24.09" y="16.51" width=".33" height=".33"/><polygon class="cls-4" points="23.42 16.84 23.42 16.51 23.09 16.51 23.09 16.84 22.76 16.84 22.76 17.17 22.76 17.51 23.09 17.51 23.09 17.84 23.42 17.84 23.76 17.84 23.76 17.51 23.76 17.17 23.42 17.17 23.42 16.84"/><rect class="cls-3" x="24.09" y="11.19" width=".33" height=".33"/><rect class="cls-3" x="21.76" y="11.52" width=".33" height=".33"/><rect class="cls-3" x="29.74" y="16.84" width=".33" height=".33"/><polygon class="cls-3" points="25.42 17.17 25.09 17.17 24.75 17.17 24.42 17.17 24.42 17.51 24.09 17.51 24.09 17.17 23.76 17.17 23.76 17.51 23.76 17.84 23.42 17.84 23.09 17.84 22.76 17.84 22.43 17.84 22.1 17.84 22.1 18.17 22.43 18.17 22.76 18.17 23.09 18.17 23.42 18.17 23.42 18.5 23.76 18.5 23.76 18.84 24.09 18.84 24.09 19.17 24.42 19.17 24.42 18.84 24.42 18.5 24.09 18.5 24.09 18.17 24.42 18.17 24.75 18.17 25.09 18.17 25.42 18.17 25.42 17.84 25.75 17.84 25.75 17.51 25.42 17.51 25.42 17.17"/><polygon class="cls-3" points="29.41 17.17 29.08 17.17 28.74 17.17 28.74 16.84 29.08 16.84 29.41 16.84 29.74 16.84 29.74 16.51 29.74 16.18 29.41 16.18 29.41 16.51 29.08 16.51 29.08 16.18 28.74 16.18 28.74 16.51 28.41 16.51 28.08 16.51 28.08 16.84 28.41 16.84 28.41 17.17 28.41 17.51 28.41 17.84 28.08 17.84 28.08 18.17 28.41 18.17 28.74 18.17 28.74 18.5 29.08 18.5 29.08 18.17 29.41 18.17 29.41 18.5 29.74 18.5 29.74 18.17 29.74 17.84 29.41 17.84 29.08 17.84 28.74 17.84 28.74 17.51 29.08 17.51 29.41 17.51 29.74 17.51 29.74 17.17 29.41 17.17"/><rect class="cls-3" x="29.74" y="17.51" width=".33" height=".33"/><polygon class="cls-7" points="18.51 7.74 18.51 7.41 18.85 7.41 18.85 7.08 18.51 7.08 18.51 6.75 18.51 6.41 18.18 6.41 18.18 6.75 18.18 7.08 18.18 7.41 18.18 7.74 18.18 8.08 18.51 8.08 18.51 7.74"/><polygon class="cls-7" points="20.01 8.08 20.34 8.08 20.34 7.74 20.34 7.41 20.34 7.08 20.34 6.75 20.34 6.41 20.01 6.41 19.67 6.41 19.67 6.58 19.34 6.58 19.34 6.91 19.67 6.91 19.67 6.75 20.01 6.75 20.01 7.08 19.67 7.08 19.67 7.41 20.01 7.41 20.01 7.74 19.67 7.74 19.67 7.41 19.34 7.41 19.34 7.74 19.34 8.08 19.67 8.08 20.01 8.08"/><polygon class="cls-7" points="29.14 6.41 29.14 6.75 29.47 6.75 29.47 7.08 29.8 7.08 29.8 6.75 29.8 6.41 29.47 6.41 29.14 6.41"/><polygon class="cls-7" points="29.14 6.75 28.81 6.75 28.81 7.08 28.81 7.41 28.81 7.74 28.81 8.08 29.14 8.08 29.47 8.08 29.47 7.91 29.8 7.91 29.8 7.58 29.47 7.58 29.47 7.74 29.14 7.74 29.14 7.41 29.47 7.41 29.47 7.08 29.14 7.08 29.14 6.75"/><rect class="cls-7" x="21.17" y="6.41" width=".33" height=".33"/><polygon class="cls-7" points="21.17 6.75 20.83 6.75 20.83 6.41 20.5 6.41 20.5 6.75 20.5 7.08 20.5 7.41 20.5 7.74 20.5 8.08 20.83 8.08 20.83 7.74 20.83 7.41 20.83 7.08 21.17 7.08 21.17 6.75"/><rect class="cls-7" x="22.33" y="6.41" width=".33" height=".33"/><polygon class="cls-7" points="22 7.74 22 7.41 22 7.08 22.33 7.08 22.33 6.75 22 6.75 22 6.41 21.67 6.41 21.67 6.75 21.67 7.08 21.67 7.41 21.67 7.74 21.67 8.08 22 8.08 22 7.74"/><rect class="cls-7" x="30.63" y="6.42" width=".33" height=".33"/><polygon class="cls-7" points="30.3 6.42 29.97 6.42 29.97 6.75 29.97 7.08 29.97 7.41 29.97 7.75 29.97 8.08 30.3 8.08 30.3 7.75 30.3 7.41 30.3 7.08 30.63 7.08 30.63 6.75 30.3 6.75 30.3 6.42"/><polygon class="cls-7" points="22.99 7.08 23.32 7.08 23.32 6.75 23.15 6.75 23.15 6.41 22.82 6.41 22.82 6.75 22.99 6.75 22.99 7.08"/><polygon class="cls-7" points="23.15 7.41 23.15 7.74 22.99 7.74 22.99 8.08 23.32 8.08 23.32 7.74 23.49 7.74 23.49 7.41 23.65 7.41 23.65 7.08 23.73 7.08 23.73 6.75 23.82 6.75 23.82 6.41 23.49 6.41 23.49 6.75 23.4 6.75 23.4 7.08 23.32 7.08 23.32 7.41 23.15 7.41"/><path class="cls-7" d="m24.48,7.74v-.33h.66v-1h-1v1.66h.33v-.33Zm0-1h.33v.33h-.33v-.33Z"/><path class="cls-7" d="m25.98,8.08h.33v-1.66h-1v1.66h.66Zm-.33-.66v-.66h.33v1h-.33v-.33Z"/><polygon class="cls-7" points="26.81 7.74 26.81 8.08 27.15 8.08 27.15 7.74 27.15 7.41 27.15 7.08 27.48 7.08 27.48 6.75 27.15 6.75 27.15 6.41 26.81 6.41 26.81 6.75 26.81 7.08 26.48 7.08 26.48 7.41 26.81 7.41 26.81 7.74"/><polygon class="cls-7" points="27.98 7.74 27.98 8.08 28.31 8.08 28.31 7.74 28.31 7.41 28.31 7.08 28.64 7.08 28.64 6.75 28.31 6.75 28.31 6.41 27.98 6.41 27.98 6.75 27.98 7.08 27.64 7.08 27.64 7.41 27.98 7.41 27.98 7.74"/><polygon class="cls-7" points="19.18 7.74 19.18 7.41 19.18 7.08 19.18 6.75 19.18 6.41 18.85 6.41 18.85 6.75 18.85 7.08 18.85 7.41 18.85 7.74 18.85 8.08 19.18 8.08 19.18 7.74"/><polygon class="cls-7" points="19.5 9.59 19.5 9.26 19.16 9.26 18.83 9.26 18.83 9.59 19.16 9.59 19.5 9.59"/><polygon class="cls-7" points="19.5 10.25 19.5 10.59 19.83 10.59 19.83 10.25 19.83 9.92 19.83 9.59 19.5 9.59 19.5 9.92 19.5 10.25"/><polygon class="cls-7" points="18.83 9.92 18.83 9.59 18.5 9.59 18.5 9.92 18.5 10.25 18.5 10.59 18.83 10.59 18.83 10.25 18.83 9.92"/><polygon class="cls-7" points="19.16 10.92 19.5 10.92 19.5 10.59 19.16 10.59 18.83 10.59 18.83 10.92 19.16 10.92"/><polygon class="cls-7" points="20.16 15.33 19.83 15.33 19.83 15.67 19.5 15.67 19.5 16 19.16 16 19.16 15.67 18.83 15.67 18.83 15.33 18.5 15.33 18.17 15.33 18.17 15.67 18.17 16 18.17 16.33 18.17 16.66 18.17 17 18.5 17 18.5 16.66 18.5 16.33 18.5 16 18.83 16 18.83 16.33 19.16 16.33 19.16 16.66 19.16 17 19.5 17 19.5 16.66 19.5 16.33 19.83 16.33 19.83 16 20.16 16 20.16 16.33 20.16 16.66 20.16 17 20.49 17 20.49 16.66 20.49 16.33 20.49 16 20.49 15.67 20.49 15.33 20.16 15.33 20.16 15.33"/><polygon class="cls-7" points="28.74 11.52 28.41 11.52 28.41 11.86 28.08 11.86 28.08 12.19 27.75 12.19 27.75 12.52 27.41 12.52 27.41 12.85 27.08 12.85 26.75 12.85 26.42 12.85 26.42 13.18 26.42 13.52 26.08 13.52 26.08 13.85 26.08 14.18 26.42 14.18 26.42 14.51 26.75 14.51 26.75 14.85 27.08 14.85 27.41 14.85 27.41 14.51 27.75 14.51 28.08 14.51 28.08 14.18 28.41 14.18 28.41 13.85 28.41 13.52 28.74 13.52 28.74 13.18 28.41 13.18 28.41 12.85 28.41 12.52 28.74 12.52 28.74 12.19 29.08 12.19 29.08 11.86 29.41 11.86 29.41 11.52 29.08 11.52 28.74 11.52"/><path class="cls-7" d="m22.43,12.52h-.33v.33h-.33v.33h.33v.33h.33v.33h2.99v-.33h.33v-.33h.33v-1h-1.33v.33h-.33v.33h-1.66v-.33h-.33Zm2.33.66v-.33h.33v-.33h.33v.33h-.33v.33h-.33v.33h-.33v-.33h.33Z"/><polygon class="cls-7" points="22.76 14.51 22.76 14.18 22.43 14.18 22.1 14.18 22.1 14.51 22.43 14.51 22.76 14.51"/><polygon class="cls-7" points="22.1 14.51 21.76 14.51 21.76 14.85 21.76 15.18 21.76 15.51 22.1 15.51 22.43 15.51 22.43 15.18 22.1 15.18 22.1 14.85 22.1 14.51"/><polygon class="cls-7" points="22.76 16.84 23.09 16.84 23.09 16.51 22.76 16.51 22.43 16.51 22.43 16.84 22.1 16.84 22.1 17.17 22.1 17.51 22.1 17.84 22.43 17.84 22.76 17.84 23.09 17.84 23.09 17.51 22.76 17.51 22.76 17.17 22.76 16.84"/><polygon class="cls-7" points="26.08 17.84 25.75 17.84 25.42 17.84 25.42 18.17 25.09 18.17 24.75 18.17 24.42 18.17 24.09 18.17 24.09 18.5 24.42 18.5 24.42 18.84 24.42 19.17 24.75 19.17 25.09 19.17 25.42 19.17 25.75 19.17 26.08 19.17 26.08 18.84 26.42 18.84 26.42 18.5 26.42 18.17 26.08 18.17 26.08 17.84"/><polygon class="cls-7" points="23.76 18.5 23.42 18.5 23.42 18.17 23.09 18.17 22.76 18.17 22.43 18.17 22.1 18.17 21.76 18.17 21.43 18.17 21.43 18.5 21.1 18.5 21.1 18.84 21.43 18.84 21.43 19.17 21.76 19.17 22.1 19.17 22.43 19.17 22.76 19.17 23.09 19.17 23.42 19.17 23.76 19.17 24.09 19.17 24.09 18.84 23.76 18.84 23.76 18.5"/><polygon class="cls-9" points="27.08 18.84 27.08 18.5 27.08 18.17 26.75 18.17 26.75 17.84 26.42 17.84 26.08 17.84 26.08 18.17 26.42 18.17 26.42 18.5 26.42 18.84 26.08 18.84 26.08 19.17 26.42 19.17 26.75 19.17 27.08 19.17 27.41 19.17 27.41 18.84 27.08 18.84"/><rect class="cls-1" x="19.5" y="11.67" width=".33" height=".33"/><polygon class="cls-1" points="19.16 11.67 19.5 11.67 19.5 11.34 19.16 11.34 18.83 11.34 18.5 11.34 18.5 11.67 18.83 11.67 18.83 12 18.83 12.34 18.83 12.67 18.5 12.67 18.5 13 18.83 13 19.16 13 19.5 13 19.5 12.67 19.16 12.67 19.16 12.34 19.5 12.34 19.5 12 19.16 12 19.16 11.67"/><rect class="cls-1" x="19.5" y="12.34" width=".33" height=".33"/><path class="cls-1" d="m30.07,11.86v-.66h-.33v-.33h-.66v-.33h-1v-.33h.66v-.33h1.33v-.33h-.33v-.33h-.33v-.33h-.66v-.33h-4.65v.33h-1v.33h-2.33v1.33h.33v.66h.33v-.33h.33v.33h.33v.66h.33v-.33h.33v-.33h.33v-.33h.33v-.33h.33v-.33h1v.33h.33v1.66h1v1h-.33v.33h-.33v.33h-1v.33h.33v.33h.33v1h-.33v.33h-.33v.33h-1v1h.66v.33h.33v-.33h.33v-.33h.33v-.33h.33v.33h.33v.33h.66v-.33h-.33v-.33h-.33v-.66h1.66v-1h-1.33v.33h-.33v-.33h-.33v-.66h.66v-.66h.33v-.66h1v-.33h.33v-.33h.33v-.33h.33v-.33h1v.33h-.33v.33h-.33v.33h1.66v-.66h-.33Zm-5.98,4.99v-.33h.33v.33h-.33Zm1.66-6.65v-.33h-.33v-.33h1v1h-.33v-.33h-.33Z"/><rect x="21.76" y="11.86" width=".33" height=".33"/><polygon points="24.42 11.86 24.42 11.52 24.09 11.52 24.09 11.86 24.09 12.19 24.42 12.19 24.42 11.86"/><polygon points="21.43 12.52 21.43 12.19 21.1 12.19 20.77 12.19 20.77 12.52 20.77 12.85 21.1 12.85 21.43 12.85 21.76 12.85 22.1 12.85 22.1 12.52 21.76 12.52 21.43 12.52"/><rect x="25.09" y="12.52" width=".33" height=".33"/><rect x="24.75" y="12.85" width=".33" height=".33"/><rect x="24.42" y="13.18" width=".33" height=".33"/><rect x="24.09" y="14.18" width=".33" height=".33"/><polygon points="24.09 14.51 23.76 14.51 23.76 14.85 23.76 15.18 24.09 15.18 24.09 14.85 24.09 14.51"/><polygon points="24.42 14.85 24.42 15.18 24.75 15.18 24.75 14.85 24.75 14.51 24.42 14.51 24.42 14.85"/><polygon points="23.42 14.85 23.42 14.51 23.42 14.18 23.09 14.18 23.09 14.51 22.76 14.51 22.76 14.85 23.09 14.85 23.09 15.18 22.76 15.18 22.76 15.51 23.09 15.51 23.42 15.51 23.76 15.51 23.76 15.18 23.42 15.18 23.42 14.85"/><rect x="24.09" y="15.18" width=".33" height=".33"/><polygon class="cls-8" points="29.08 16.84 28.74 16.84 28.74 17.17 29.08 17.17 29.41 17.17 29.74 17.17 29.74 16.84 29.41 16.84 29.08 16.84"/><polygon class="cls-8" points="29.41 17.51 29.08 17.51 28.74 17.51 28.74 17.84 29.08 17.84 29.41 17.84 29.74 17.84 29.74 17.51 29.41 17.51"/><path class="cls-8" d="m31.07,16.18v-.66h-.33v-.33h-.66v-.33h-1.66v.33h-.66v.33h-.33v.33h-.33v.66h-.33v1.66h.33v.66h.33v.33h.66v.33h2.33v-.33h.33v-.33h.33v-.66h.33v-1.99h-.33Zm-1,1.66h-.33v.66h-.33v-.33h-.33v.33h-.33v-.33h-.66v-.33h.33v-1h-.33v-.33h.66v-.33h.33v.33h.33v-.33h.33v.66h.33v.33h-.33v.33h.33v.33Z"/></svg>