<?xml version="1.0" encoding="UTF-8"?><svg id="Layer_1" xmlns="http://www.w3.org/2000/svg" xmlns:xlink="http://www.w3.org/1999/xlink" viewBox="0 0 38 25"><defs><style>.cls-1{fill:#f7e5e6;}.cls-2{fill:#f7edea;}.cls-3{fill:#f9e8d4;}.cls-4{fill:#f9e7e8;}.cls-5{fill:#000304;}.cls-6{fill:#ec1e24;}.cls-7{fill:#fff;}.cls-8{fill:#ffb400;}.cls-9{fill:#ffbbed;}.cls-10{fill:#fae6e8;}.cls-11{fill:#9e8e7d;}.cls-12{fill:#a67065;}.cls-13{fill:#a99596;}.cls-14{fill:#c6c6c6;}.cls-15{filter:url(#drop-shadow-20);}</style><filter id="drop-shadow-20" filterUnits="userSpaceOnUse"><feOffset dx="-.2" dy=".2"/><feGaussianBlur result="blur" stdDeviation="1"/><feFlood flood-color="#231f20" flood-opacity=".75"/><feComposite in2="blur" operator="in"/><feComposite in="SourceGraphic"/></filter></defs><polygon class="cls-9" points="22 10.5 22 9.5 22 8.5 21 8.5 21 7.5 21 6.5 20 6.5 20 5.5 19 5.5 19 4.5 18 4.5 17 4.5 17 3.5 16 3.5 15 3.5 15 2.5 14 2.5 13 2.5 12 2.5 11 2.5 11 3.5 10 3.5 9 3.5 9 4.5 8 4.5 7 4.5 7 5.5 6 5.5 6 6.5 5 6.5 5 7.5 5 8.5 4 8.5 4 9.5 4 10.5 3 10.5 3 11.5 3 12.5 3 13.5 3 14.5 4 14.5 4 15.5 4 16.5 5 16.5 5 17.5 5 18.5 6 18.5 6 19.5 7 19.5 7 20.5 8 20.5 9 20.5 9 21.5 10 21.5 11 21.5 11 22.5 12 22.5 13 22.5 14 22.5 15 22.5 15 21.5 16 21.5 17 21.5 17 20.5 18 20.5 19 20.5 19 19.5 20 19.5 20 18.5 21 18.5 21 17.5 21 16.5 22 16.5 22 15.5 22 14.5 23 14.5 23 13.5 23 12.5 23 11.5 23 10.5 22 10.5"/><polygon class="cls-7" points="9.5 9 8.5 9 8.5 10 7.5 10 7.5 11 7.5 12 8.5 12 8.5 11 9.5 11 9.5 10 10.5 10 10.5 9 9.5 9"/><path class="cls-6" d="m18.5,9v-1h-4v1h-1v1h-1v-1h-1v-1h-4v1h-1v4h1v1h1v1h1v1h1v1h1v1h1v1h1v-1h1v-1h1v-1h1v-1h1v-1h1v-1h1v-4h-1Zm-11,2v-1h1v-1h2v1h-1v1h-1v1h-1v-1Z"/><polygon points="9.5 8 10.5 8 11.5 8 11.5 7 10.5 7 9.5 7 8.5 7 7.5 7 7.5 8 8.5 8 9.5 8"/><polygon points="16.5 8 17.5 8 18.5 8 18.5 7 17.5 7 16.5 7 15.5 7 14.5 7 14.5 8 15.5 8 16.5 8"/><rect x="6.5" y="8" width="1" height="1"/><rect x="11.5" y="8" width="1" height="1"/><rect x="13.5" y="8" width="1" height="1"/><rect x="18.5" y="8" width="1" height="1"/><rect x="12.5" y="9" width="1" height="1"/><polygon points="19.5 9 19.5 10 19.5 11 19.5 12 19.5 13 20.5 13 20.5 12 20.5 11 20.5 10 20.5 9 19.5 9"/><polygon points="6.5 11 6.5 10 6.5 9 5.5 9 5.5 10 5.5 11 5.5 12 5.5 13 6.5 13 6.5 12 6.5 11"/><rect x="6.5" y="13" width="1" height="1"/><rect x="18.5" y="13" width="1" height="1"/><rect x="7.5" y="14" width="1" height="1"/><rect x="17.5" y="14" width="1" height="1"/><rect x="8.5" y="15" width="1" height="1"/><rect x="16.5" y="15" width="1" height="1"/><rect x="9.5" y="16" width="1" height="1"/><rect x="15.5" y="16" width="1" height="1"/><rect x="10.5" y="17" width="1" height="1"/><rect x="14.5" y="17" width="1" height="1"/><rect x="11.5" y="18" width="1" height="1"/><rect x="13.5" y="18" width="1" height="1"/><rect x="12.5" y="19" width="1" height="1"/><g class="cls-15"><rect class="cls-13" x="20.5" y="3.5" width="1" height="1"/><rect class="cls-13" x="19.5" y="4.5" width="1" height="1"/><rect class="cls-13" x="29.5" y="5.5" width="1" height="1"/><rect class="cls-13" x="28.5" y="5.5" width="1" height="1"/><rect class="cls-13" x="20.5" y="4.5" width="1" height="1"/><rect class="cls-13" x="28.5" y="6.5" width="1" height="1"/><rect class="cls-11" x="25.5" y="4.5" width="1" height="1"/><rect class="cls-11" x="24.5" y="4.5" width="1" height="1"/><rect class="cls-3" x="32.5" y="9.5" width="1" height="1"/><rect class="cls-3" x="31.5" y="10.5" width="1" height="1"/><rect class="cls-11" x="24.5" y="5.5" width="1" height="1"/><rect class="cls-12" x="31.5" y="11.5" width="1" height="1"/><rect class="cls-12" x="31.5" y="12.5" width="1" height="1"/><polygon class="cls-1" points="30.5 8.5 30.5 7.5 30.5 6.5 29.5 6.5 29.5 7.5 28.5 7.5 27.5 7.5 27.5 8.5 28.5 8.5 28.5 9.5 27.5 9.5 27.5 10.5 28.5 10.5 29.5 10.5 30.5 10.5 31.5 10.5 31.5 9.5 31.5 8.5 30.5 8.5"/><polygon class="cls-2" points="33.5 11.5 33.5 10.5 32.5 10.5 32.5 11.5 32.5 12.5 33.5 12.5 34.5 12.5 34.5 11.5 33.5 11.5"/><rect class="cls-2" x="27.5" y="8.5" width="1" height="1"/><polygon class="cls-2" points="31.5 14.5 31.5 15.5 31.5 16.5 32.5 16.5 32.5 15.5 32.5 14.5 32.5 13.5 31.5 13.5 31.5 14.5"/><polygon class="cls-2" points="26.5 8.5 27.5 8.5 27.5 7.5 26.5 7.5 26.5 6.5 26.5 5.5 25.5 5.5 25.5 6.5 24.5 6.5 23.5 6.5 23.5 7.5 23.5 8.5 23.5 9.5 23.5 10.5 24.5 10.5 25.5 10.5 26.5 10.5 27.5 10.5 27.5 9.5 26.5 9.5 26.5 8.5"/><polygon class="cls-10" points="22.5 6.5 22.5 5.5 21.5 5.5 20.5 5.5 19.5 5.5 19.5 4.5 18.5 4.5 18.5 5.5 17.5 5.5 17.5 6.5 16.5 6.5 16.5 7.5 16.5 8.5 15.5 8.5 15.5 9.5 15.5 10.5 16.5 10.5 17.5 10.5 18.5 10.5 19.5 10.5 20.5 10.5 21.5 10.5 21.5 9.5 21.5 8.5 22.5 8.5 22.5 9.5 22.5 10.5 23.5 10.5 23.5 9.5 23.5 8.5 23.5 7.5 23.5 6.5 22.5 6.5"/><polygon class="cls-10" points="14.5 11.5 14.5 12.5 14.5 13.5 14.5 14.5 15.5 14.5 15.5 13.5 15.5 12.5 15.5 11.5 15.5 10.5 14.5 10.5 14.5 11.5"/><rect class="cls-14" x="33.5" y="10.5" width="1" height="1"/><polygon class="cls-14" points="29.5 4.5 28.5 4.5 28.5 3.5 27.5 3.5 26.5 3.5 26.5 2.5 25.5 2.5 24.5 2.5 23.5 2.5 22.5 2.5 22.5 3.5 21.5 3.5 21.5 4.5 21.5 5.5 22.5 5.5 22.5 6.5 23.5 6.5 24.5 6.5 24.5 5.5 24.5 4.5 25.5 4.5 26.5 4.5 26.5 5.5 26.5 6.5 26.5 7.5 27.5 7.5 28.5 7.5 28.5 6.5 28.5 5.5 29.5 5.5 30.5 5.5 30.5 4.5 29.5 4.5"/><polygon class="cls-14" points="32.5 9.5 33.5 9.5 33.5 8.5 32.5 8.5 32.5 7.5 32.5 6.5 31.5 6.5 31.5 5.5 30.5 5.5 30.5 6.5 30.5 7.5 30.5 8.5 31.5 8.5 31.5 9.5 31.5 10.5 32.5 10.5 32.5 9.5"/><polygon class="cls-14" points="32.5 12.5 32.5 13.5 32.5 14.5 32.5 15.5 32.5 16.5 33.5 16.5 33.5 15.5 33.5 14.5 34.5 14.5 34.5 13.5 34.5 12.5 33.5 12.5 32.5 12.5"/><rect class="cls-14" x="26.5" y="8.5" width="1" height="1"/><path class="cls-14" d="m31.5,15.5v-5h-9v-2h-1v2h-6v6h1v2h1v-1h2v3h1v1h1v-3h-1v-1h1v1h1v-1h1v2h-1v1h1v1h-1v1h4v-1h2v-1h2v-1h-2v-2h1v1h1v1h1v-1h1v-2h-1v-1Zm-4,4h-3v-2h2v1h1v1Z"/><polygon class="cls-4" points="29.5 18.5 29.5 17.5 28.5 17.5 28.5 18.5 28.5 19.5 29.5 19.5 30.5 19.5 30.5 18.5 29.5 18.5"/><rect class="cls-4" x="20.5" y="17.5" width="1" height="1"/><polygon class="cls-4" points="26.5 17.5 25.5 17.5 24.5 17.5 24.5 18.5 24.5 19.5 25.5 19.5 26.5 19.5 27.5 19.5 27.5 18.5 26.5 18.5 26.5 17.5"/><polygon class="cls-4" points="22.5 18.5 21.5 18.5 21.5 19.5 21.5 20.5 21.5 21.5 22.5 21.5 23.5 21.5 23.5 20.5 22.5 20.5 22.5 19.5 23.5 19.5 23.5 18.5 23.5 17.5 22.5 17.5 22.5 18.5"/><polygon class="cls-4" points="17.5 17.5 17.5 18.5 17.5 19.5 18.5 19.5 18.5 20.5 19.5 20.5 19.5 19.5 19.5 18.5 19.5 17.5 18.5 17.5 17.5 17.5"/><polygon class="cls-8" points="30.5 10.5 29.5 10.5 28.5 10.5 27.5 10.5 26.5 10.5 25.5 10.5 24.5 10.5 23.5 10.5 22.5 10.5 21.5 10.5 20.5 10.5 19.5 10.5 18.5 10.5 17.5 10.5 16.5 10.5 15.5 10.5 15.5 11.5 15.5 12.5 15.5 13.5 15.5 14.5 15.5 15.5 15.5 16.5 16.5 16.5 16.5 17.5 17.5 17.5 18.5 17.5 19.5 17.5 20.5 17.5 21.5 17.5 22.5 17.5 23.5 17.5 24.5 17.5 25.5 17.5 26.5 17.5 27.5 17.5 28.5 17.5 29.5 17.5 30.5 17.5 31.5 17.5 31.5 16.5 31.5 15.5 31.5 14.5 31.5 13.5 31.5 12.5 31.5 11.5 31.5 10.5 30.5 10.5"/><rect class="cls-5" x="16.07" y="12.87" width=".5" height=".5"/><polygon class="cls-5" points="17.57 12.37 17.57 11.87 17.07 11.87 17.07 12.37 16.57 12.37 16.57 12.87 17.07 12.87 17.07 13.37 16.57 13.37 16.57 13.87 17.07 13.87 17.07 14.37 17.07 14.87 16.57 14.87 16.57 15.37 17.07 15.37 17.07 15.87 17.57 15.87 17.57 15.37 18.07 15.37 18.07 14.87 17.57 14.87 17.57 14.37 18.07 14.37 18.07 13.87 17.57 13.87 17.57 13.37 17.57 12.87 18.07 12.87 18.07 12.37 17.57 12.37"/><rect class="cls-5" x="18.07" y="12.87" width=".5" height=".5"/><rect class="cls-5" x="18.07" y="14.37" width=".5" height=".5"/><rect class="cls-5" x="16.07" y="14.37" width=".5" height=".5"/><polygon class="cls-5" points="21.07 12.37 21.07 12.87 21.07 13.37 20.57 13.37 20.57 12.87 20.07 12.87 20.07 12.37 19.57 12.37 19.07 12.37 19.07 12.87 19.07 13.37 19.07 13.87 19.07 14.37 19.07 14.87 19.07 15.37 19.07 15.87 19.57 15.87 20.07 15.87 20.07 15.37 20.07 14.87 20.57 14.87 20.57 15.37 21.07 15.37 21.07 15.87 21.57 15.87 22.07 15.87 22.07 15.37 22.07 14.87 22.07 14.37 22.07 13.87 22.07 13.37 22.07 12.87 22.07 12.37 21.57 12.37 21.07 12.37"/><polygon class="cls-5" points="22.54 12.37 22.54 12.87 22.54 13.37 22.54 13.87 22.54 14.37 22.54 14.87 22.54 15.37 22.54 15.87 23.04 15.87 23.54 15.87 23.54 15.37 23.54 14.87 23.54 14.37 23.54 13.87 23.54 13.37 23.54 12.87 23.54 12.37 23.04 12.37 22.54 12.37"/><path class="cls-5" d="m30.44,14.87v-1.5h-.5v-1h-1.5v1h-.5v1.5h-.5v1h1v-.5h1.5v.5h1v-1h-.5Zm-2-1h.5v-.5h.5v.5h.5v.5h-1.5v-.5Z"/><polygon class="cls-5" points="26.03 12.37 26.03 12.87 26.03 13.37 25.53 13.37 25.53 12.87 25.03 12.87 25.03 12.37 24.53 12.37 24.03 12.37 24.03 12.87 24.03 13.37 24.03 13.87 24.03 14.37 24.03 14.87 24.03 15.37 24.03 15.87 24.53 15.87 25.03 15.87 25.03 15.37 25.03 14.87 25.53 14.87 25.53 15.37 26.03 15.37 26.03 15.87 26.53 15.87 27.03 15.87 27.03 15.37 27.03 14.87 27.03 14.37 27.03 13.87 27.03 13.37 27.03 12.87 27.03 12.37 26.53 12.37 26.03 12.37"/></g></svg>