<svg xmlns="http://www.w3.org/2000/svg" width="90.479" height="28.022" viewBox="0 0 90.479 28.022">
  <g id="Group_193" data-name="Group 193" transform="translate(-577.582 -806.268)">
    <rect id="Rectangle_200" data-name="Rectangle 200" width="5.192" height="2.045" transform="translate(581.471 814.333)"/>
    <rect id="Rectangle_201" data-name="Rectangle 201" width="1.969" height="4.09" transform="translate(577.582 810.243)"/>
    <rect id="Rectangle_202" data-name="Rectangle 202" width="1.969" height="4.09" transform="translate(581.471 812.288)"/>
    <rect id="Rectangle_203" data-name="Rectangle 203" width="4.051" height="4.09" transform="translate(585.58 812.288)"/>
    <path id="Path_116" data-name="Path 116" d="M46.6,8.243V6.264H42.615v-2H34.639v2H30.656V8.243H28.63V32.29h2.026V30.245h3.983v-2h7.976v2H46.6V32.29h2.025V8.243Z" transform="translate(561 802)"/>
    <rect id="Rectangle_204" data-name="Rectangle 204" width="1.969" height="4.09" transform="translate(577.582 816.214)" fill="#eb1c24"/>
    <path id="Path_117" data-name="Path 117" d="M24.58,16.259V18.3H22.441V16.259H20.472v4.09h8.159v-4.09Z" transform="translate(561 802)" fill="#eb1c24"/>
    <rect id="Rectangle_205" data-name="Rectangle 205" width="1.969" height="4.09" transform="translate(577.582 822.185)" fill="#3a42a3"/>
    <path id="Path_118" data-name="Path 118" d="M24.58,22.229v2.045H22.441V22.229H20.472v4.09h8.159v-4.09Z" transform="translate(561 802)" fill="#3a42a3"/>
    <rect id="Rectangle_206" data-name="Rectangle 206" width="1.969" height="4.09" transform="translate(577.582 828.155)"/>
    <path id="Path_119" data-name="Path 119" d="M24.58,28.2v2.045H22.441V28.2H20.472v4.09h8.159V28.2Z" transform="translate(561 802)"/>
    <path id="Path_120" data-name="Path 120" d="M36.608,8.243H34.639v2.045H32.806v5.971h1.969V14.214h1.833Z" transform="translate(561 802)" fill="#eb1c24"/>
    <path id="Path_121" data-name="Path 121" d="M36.608,18.221H34.639v2.045H32.806v5.97h1.969V24.192h1.833Z" transform="translate(561 802)" fill="#3a42a3"/>
    <path id="Path_122" data-name="Path 122" d="M42.763,10.288V8.243H40.793v5.971h1.832v2.045H44.6V10.288Z" transform="translate(561 802)" fill="#8ac43f"/>
    <path id="Path_123" data-name="Path 123" d="M42.763,20.266V18.221H40.793v5.971h1.832v2.045H44.6V20.266Z" transform="translate(561 802)" fill="#ff0"/>
    <rect id="Rectangle_207" data-name="Rectangle 207" width="8.14" height="2.275" transform="translate(617.662 810.996)"/>
    <rect id="Rectangle_208" data-name="Rectangle 208" width="4.011" height="6.046" transform="translate(615.824 813.271)"/>
    <rect id="Rectangle_209" data-name="Rectangle 209" width="4.011" height="2.048" transform="translate(615.824 825.289)"/>
    <rect id="Rectangle_210" data-name="Rectangle 210" width="4.011" height="6.046" transform="translate(623.796 821.291)"/>
    <rect id="Rectangle_211" data-name="Rectangle 211" width="4.011" height="14.066" transform="translate(631.938 813.271)"/>
    <rect id="Rectangle_212" data-name="Rectangle 212" width="4.011" height="12.217" transform="translate(654.024 817.281)"/>
    <rect id="Rectangle_213" data-name="Rectangle 213" width="4.011" height="14.129" transform="translate(662.044 813.208)"/>
    <rect id="Rectangle_214" data-name="Rectangle 214" width="4.011" height="10.182" transform="translate(647.888 819.315)"/>
    <rect id="Rectangle_215" data-name="Rectangle 215" width="4.011" height="4.111" transform="translate(639.912 823.339)"/>
    <rect id="Rectangle_216" data-name="Rectangle 216" width="4.011" height="2.048" transform="translate(623.796 813.271)"/>
    <rect id="Rectangle_217" data-name="Rectangle 217" width="4.011" height="2.048" transform="translate(633.942 817.268)"/>
    <rect id="Rectangle_218" data-name="Rectangle 218" width="4.011" height="2.048" transform="translate(656.029 817.268)"/>
    <rect id="Rectangle_219" data-name="Rectangle 219" width="4.011" height="2.048" transform="translate(664.05 817.268)"/>
    <rect id="Rectangle_220" data-name="Rectangle 220" width="4.011" height="2.048" transform="translate(664.05 827.336)"/>
    <rect id="Rectangle_221" data-name="Rectangle 221" width="8.17" height="2.048" transform="translate(641.724 817.268)"/>
    <rect id="Rectangle_222" data-name="Rectangle 222" width="8.17" height="2.048" transform="translate(641.724 821.292)"/>
    <rect id="Rectangle_223" data-name="Rectangle 223" width="8.17" height="2.048" transform="translate(641.724 827.449)"/>
    <rect id="Rectangle_224" data-name="Rectangle 224" width="4.011" height="2.048" transform="translate(633.942 827.336)"/>
    <rect id="Rectangle_225" data-name="Rectangle 225" width="8.14" height="2.275" transform="translate(617.662 819.315)"/>
    <rect id="Rectangle_226" data-name="Rectangle 226" width="8.14" height="2.275" transform="translate(617.662 827.336)"/>
  </g>
</svg>
