<svg xmlns="http://www.w3.org/2000/svg" width="846.667" height="946.667" viewBox="0 0 635 710"><path d="M334.7 46.1c-33 2.7-56.5 18.1-78.8 51.8-17.6 26.6-27.4 55.7-30 89.2-1.2 16.9-2.6 21.5-7.9 26.3-4.3 3.9-4.9 4-27.6 8.4-17.3 3.3-32.5 7.9-48.2 14.3-29 12.1-39.3 22.9-48.7 51.2-6.3 19.2-16.4 55.4-17.6 63.7-2.4 16.4.3 37.7 7.2 58.5 6.6 19.6 23.4 50.2 38.8 70.4l5.9 7.7.4 13.5c.3 13.3.4 13.8 4 21 5.8 11.6 5.9 12.3 7.3 32.4l1.3 19-2.6 2.7c-3.9 4.2-4.3 12-.8 17.1 2.7 4 2.8 6.5.1 8.7-2.2 1.8-1.8 3.2.6 2.5l2.2-.7-2.1 2.8c-1.1 1.6-6.2 7.6-11.4 13.3-18.2 20.4-19.8 22.8-19.8 30.3 0 3.8 2.3 10.3 4.1 11.4.5.3 5-1.1 10.1-3 12.9-4.7 22-6 38.6-5.3 14.9.6 26 2.8 40 7.7l9.6 3.3c.5.1 1.4-1.6 2-3.8 3-11.2 14.5-20.5 33.6-27.1 3.6-1.3 6.6-2.9 6.8-3.7.5-2.4-3.8-6.6-10.2-9.7-5-2.5-8.4-3.3-16.2-4.1-27.5-2.5-46.2-8.7-58.7-19.3-4.6-3.8-4.9-4.3-4.4-7.9.8-5.5-.9-10.1-4.8-13.6-4.2-3.7-5.1-7.1-6.4-24.6-.9-11.3-.6-34.9.5-38.3.2-.8 1.9 0 5 2.4 19.2 14.6 61.7 23.7 117.9 25.3l23 .6.3 5c.3 5.2.3 5.2-6.3 14.1-.9 1.2-1.9 4.1-2.3 6.5-.7 4.1-1.4 4.9-9.7 11.2-5.5 4.1-15 9.7-24.3 14.4-9.4 4.6-17.1 9.2-20 11.8l-4.7 4.3 5 .6c13.2 1.7 33.7 8.7 59 20.3 13.1 6 14 6.3 15.2 4.6 5.2-7.4 12.5-11.9 25-15.5 7.1-2.1 9.8-2.3 31.5-2.3 27.3 0 25.5 1 19-10.4l-3.7-6.5-11.2-3.2c-6.2-1.8-15.7-5.2-21-7.6-11.3-5.1-29.2-15.4-29.8-17.1-.2-.7-.6-2.8-.9-4.8-.4-2.1-1.8-5.4-3.2-7.5-2.4-3.5-2.6-4.3-1.9-11.1l.7-7.3 8.6-4.6c30.2-16.2 43.5-24.2 58.8-35.7 38.3-28.7 57.8-65 56.1-104.7-1-25.9-8.2-43.9-32.6-81.5l-17.6-27.1c-5.9-9.2-17.2-21.1-30.5-32.2-8.9-7.5-11-9.8-13.9-15.5-3-5.8-3.4-7.6-3.4-14 0-5.7.5-8.2 2.2-11.3 4.6-8.1 11.1-10.6 40.9-15.5 19.7-3.2 20.6-3.3 32-2.1 21.1 2.1 47.8 10.3 58.4 17.9 6.7 4.8 22.9 11.8 34.6 14.9 7.7 2 13.3 2.7 27.3 3.3 17.6.8 17.6.8 25.6 4.5 8.6 4.1 12.5 4.3 15.6.8 4.3-5 2.2-11.7-6.3-19.4-6.1-5.6-12.6-9.8-38.5-24.8-28.9-16.8-47.4-29.8-60.1-42.4-8.7-8.7-11-12.7-14.3-24.9-11-40.4-48.7-72.6-92.8-79.2-10.6-1.6-14.5-1.7-29.6-.4zm52.7 54.3c5.1 2.1 7.6 6 7.6 11.8 0 7.9-4.7 12.8-12.5 12.8-7.6 0-12.8-5.4-12.8-13.3 0-4.6 2.6-8.5 7.4-10.9 4.1-2.2 5.9-2.2 10.3-.4z" fill="#4655ff"/></svg>