<?xml version="1.0" encoding="utf-8"?>
<!-- Generator: Adobe Illustrator 27.5.0, SVG Export Plug-In . SVG Version: 6.00 Build 0)  -->
<svg version="1.1" id="Layer_1" xmlns="http://www.w3.org/2000/svg" xmlns:xlink="http://www.w3.org/1999/xlink" x="0px" y="0px"
	 viewBox="0 0 1500 1500" style="enable-background:new 0 0 1500 1500;" xml:space="preserve">
<style type="text/css">
	.st0{fill:#FF0000;}
	.st1{fill:#FFFFFF;}
</style>
<g>
	<path class="st0" d="M603.9,1194.8h97v-99.5h-97V1194.8z M615.4,400.9v-99.6h-99.6v-95.7H205.6v100.1H105.2V697h100.4v99.6h99.6
		v99.5h99.6v99.6h99.6v99.6H675v-93h-16.9v-99.9h60.5V797.1H668v-99.8h-49.9V591.8h30.4V492h69.9h1.7h0.2v-91.2H615.4z"/>
	<polygon class="st1" points="314.4,304.3 314.4,402.9 213.9,402.9 213.9,502.9 213.9,606.4 314.4,606.4 314.4,502.9 414.4,502.9 
		414.4,402.9 514.4,402.9 514.4,304.3 	"/>
	<polygon class="st0" points="1294.4,305.8 1294.4,205.6 969.9,205.6 969.9,301.3 876.2,301.3 876.2,393.9 895.3,393.9 895.3,499.2 
		879.1,499.2 876,499.2 875.7,499.2 875.7,591.9 771.1,591.9 771.1,697.2 795.3,697.2 795.3,795.5 768.2,795.5 768.2,903.8 
		875.7,903.8 875.7,1002.2 772.4,1002.2 772.4,1107.4 773.1,1107.4 773.1,1194.8 896.1,1194.8 896.1,1095.2 995.7,1095.2 
		995.7,995.7 1095.3,995.7 1095.3,896.1 1194.8,896.1 1194.8,796.6 1294.4,796.6 1294.4,697 1394.8,697 1394.8,305.8 	"/>
	<g>
		<rect x="739.2" y="591.9" width="55.4" height="105.2"/>
		<polyline points="768.2,697.3 768.2,797.1 819.1,797.1 820.9,795.5 820.6,795.5 820.6,697.2 		"/>
		<rect x="842.9" y="393.9" width="52.4" height="105.2"/>
		<polygon points="1399.6,200.6 1299.5,200.6 1299.5,100.4 964.3,100.4 964.3,196.1 864.7,196.1 864.7,295.7 794.6,295.7 
			794.6,400.9 876,400.9 876,366.6 876.2,366.6 876.2,301.3 969.9,301.3 969.9,205.6 1294.4,205.6 1294.4,305.8 1394.8,305.8 
			1394.8,697 1294.4,697 1294.4,796.6 1194.8,796.6 1194.8,896.1 1095.3,896.1 1095.3,995.7 995.7,995.7 995.7,1095.2 896.1,1095.2 
			896.1,1194.8 798.1,1194.8 798.1,1107.4 750.8,1107.4 750.8,1399.6 801.8,1399.6 801.8,1300 901.8,1300 901.8,1200.5 
			1001.3,1200.5 1001.3,1100.9 1100.9,1100.9 1100.9,1001.3 1200.5,1001.3 1200.5,901.8 1300,901.8 1300,802.2 1399.6,802.2 
			1399.6,698.2 1500,698.2 1500,301 1399.6,301 		"/>
		<polygon points="794.6,492 794.6,591.9 875.7,591.9 875.7,499.2 875.7,492 		"/>
	</g>
	<rect x="626.7" y="900.4" class="st0" width="249" height="294.4"/>
	<g>
		<rect x="618.1" y="591.9" width="49.9" height="105.2"/>
		<rect x="648.5" y="492" width="52.4" height="99.9"/>
		<polygon points="771.6,903.8 771.6,795.5 718.8,795.5 717,797.1 717,902.3 716.3,902.3 718.6,903.8 		"/>
		<polygon points="752,1399.6 752,1107.4 702.4,1107.4 700.9,1107.4 700.9,1194.8 603.9,1194.8 603.9,1107.4 720.3,1107.4 
			720.3,1002.2 597.2,1002.2 597.2,1095.2 504.3,1095.2 504.3,995.7 404.7,995.7 404.7,896.1 305.2,896.1 305.2,796.6 205.6,796.6 
			205.6,697 105.2,697 105.2,305.8 205.6,305.8 205.6,205.6 515.8,205.6 515.8,301.3 615.4,301.3 615.4,400.9 700.9,400.9 
			700.9,295.7 621,295.7 621,196.1 521.5,196.1 521.5,100.4 200.5,100.4 200.5,200.6 100.4,200.6 100.4,301 0,301 0,698.2 
			100.4,698.2 100.4,802.2 200,802.2 200,901.8 299.5,901.8 299.5,1001.3 399.1,1001.3 399.1,1100.9 498.7,1100.9 498.7,1200.5 
			598.2,1200.5 598.2,1300 697.8,1300 697.8,1399.6 		"/>
		<rect x="668" y="697.3" width="52.4" height="99.8"/>
		<polyline points="685.2,400.9 685.2,499.2 747.4,499.2 747.4,393.9 685.4,393.9 		"/>
	</g>
	<rect x="589.4" y="900.4" class="st0" width="286.3" height="294.4"/>
	<rect x="699.9" y="1194.8" class="st0" width="102.6" height="106"/>
</g>
</svg>
