<?xml version="1.0" encoding="utf-8"?>
<!-- Generator: Adobe Illustrator 27.5.0, SVG Export Plug-In . SVG Version: 6.00 Build 0)  -->
<svg version="1.1" id="Layer_1" xmlns="http://www.w3.org/2000/svg" xmlns:xlink="http://www.w3.org/1999/xlink" x="0px" y="0px"
	 viewBox="0 0 1500 1500" style="enable-background:new 0 0 1500 1500;" xml:space="preserve">
<style type="text/css">
	.st0{fill:#FF0000;}
	.st1{fill:#FFFFFF;}
</style>
<g>
	<path d="M1399.7,301.3V201h-100V101H893.5v95.6H794V296H706v-99.5h-99.4V101H200.4v100h-100v100.3H0v396.9h100.3v103.9h99.5v99.5
		h99.5v99.5h99.5v99.5h99.5v99.5h99.5v99.5h99.5v99.5h105.1v-99.5h99.9v-99.5h99.5v-99.5h99.5v-99.5h99.5v-99.5h99.5v-99.5h99.5
		V698.2H1500V301.3H1399.7z M1394.9,697.1h-100.3v99.5h-99.5V896h-99.5v99.5h-99.5v99.5h-99.5v99.5h-99.5v99.5h-94.3v-99.5h-99.5
		V1095h-99.5v-99.5h-99.5V896h-99.5v-99.5h-99.5v-99.5H105.1V306.1h100.3v-100h395.4v95.6h99.5v99.5h105.1v-99.5h93.7v-95.6h395.4
		v100h100.3V697.1z"/>
	<polygon class="st0" points="1394.9,697.1 1294.5,697.1 1294.5,796.5 1195.1,796.5 1195.1,896 1095.6,896 1095.6,995.5 
		996.1,995.5 996.1,1095 896.6,1095 896.6,1194.4 797.2,1194.4 797.2,1293.9 702.8,1293.9 702.8,1194.4 603.4,1194.4 603.4,1095 
		503.9,1095 503.9,995.5 404.4,995.5 404.4,896 304.9,896 304.9,796.5 205.5,796.5 205.5,697.1 105.1,697.1 105.1,306.1 
		205.5,306.1 205.5,206.1 600.9,206.1 600.9,301.7 700.3,301.7 700.3,401.2 805.5,401.2 805.5,301.7 899.2,301.7 899.2,206.1 
		1294.5,206.1 1294.5,306.1 1394.9,306.1 	"/>
	<polygon class="st1" points="314.2,304.6 314.2,403.2 213.7,403.2 213.7,503.1 213.7,606.5 314.2,606.5 314.2,503.1 414.1,503.1 
		414.1,403.2 514,403.2 514,304.6 	"/>
</g>
</svg>
