<?xml version="1.0" encoding="UTF-8" standalone="no"?>
<!DOCTYPE svg PUBLIC "-//W3C//DTD SVG 1.1//EN" "http://www.w3.org/Graphics/SVG/1.1/DTD/svg11.dtd">
<svg width="100%" height="100%" viewBox="0 0 522 522" version="1.1" xmlns="http://www.w3.org/2000/svg" xmlns:xlink="http://www.w3.org/1999/xlink" xml:space="preserve" xmlns:serif="http://www.serif.com/" style="fill-rule:evenodd;clip-rule:evenodd;stroke-linejoin:round;stroke-miterlimit:2;">
    <g transform="matrix(1,0,0,1,110,0)">
        <path d="M136.7,456.5C136.7,456.5 136.6,456.2 135.7,521.5C135.7,522.9 130.8,515 127.4,501.1C122.8,482.1 121.7,472.9 114.7,463.5C104.3,449.5 85.1,446.7 70.6,436.8C53.3,425 22.1,395.8 9.5,364.5C-1.7,336.6 0.7,304.5 0.7,304.5C0.7,304.5 8.3,315.1 12.1,318.9C15.9,322.7 23.7,329.5 23.7,329.5C23.7,329.5 13.4,306 9.8,293.6C6,280.4 5,258.7 6.2,239.6C7.3,220.8 13.7,207.5 13.7,207.5C13.7,207.5 18,220.8 20.5,226.7C22.9,232.1 28.7,242.5 28.7,242.5C28.7,242.5 28.2,216.1 28.5,203C28.6,195.3 30.5,178 34.8,165.3C40.4,148.8 49.7,136.5 49.7,136.5C49.7,136.5 53,155.4 55.3,163.4C57.5,170.6 63.7,184.5 63.7,184.5C63.7,184.5 63.3,146.5 65,127.6C65.9,118.3 68.7,104.4 73.6,93.3C79.1,80.7 86.7,71.5 86.7,71.5C86.7,71.5 90.4,84.6 93.1,90.3C95.6,95.7 102.7,105.5 102.7,105.5C102.7,105.5 101.1,91.2 105.5,77.7C110.3,62.4 112,56.7 119.3,44.3C132.4,22 150.7,0.5 150.7,0.5C150.7,0.5 162.7,14.4 175.7,33.9C181,41.9 191.3,59.5 196.2,75.2C201.1,90.8 199.7,106.5 199.7,106.5C199.7,106.5 205.8,96.4 208.3,90.8C211,85 215.7,71.5 215.7,71.5C215.7,71.5 222.7,82.8 228.1,95.7C231.7,104.2 234.1,113.9 235.2,119.3C239,137.8 237.7,184.5 237.7,184.5C237.7,184.5 242.3,179.1 246.9,165.4C251.1,153.1 252.7,138.5 252.7,138.5C252.7,138.5 259.9,140.6 267,167.7C268.8,174.6 272.3,189.2 273.4,202.7C274.9,222.1 272.7,242.5 272.7,242.5C272.7,242.5 279.4,231.5 282.1,225.8C284.6,220.4 287.7,206.5 287.7,206.5C287.7,206.5 293.7,218.1 295.9,242.4C296.6,251 296.7,273.1 293.1,289.5C288.5,311 278.7,327.5 278.7,327.5C278.7,327.5 287.6,322.3 291.4,318.9C295.2,315.4 301.7,306.5 301.7,306.5C301.7,306.5 302.4,335.8 293.6,362.2C286.9,382 267.2,408 249.1,424.1C213.9,455.7 164.7,456.5 164.7,456.5L163.7,407.5L258.7,256.5L162.7,382.5L159.7,290.5L225.7,183.5L157.7,274.5L156.7,188.5L197.7,121.5L154.7,178.5L150.7,89.5L147.7,178.5L104.7,121.5L146.7,191.5L143.7,275.5L73.7,183.5L142.7,293.5L139.7,386.5L40.7,253.5L137.7,407.5L136.7,456.5Z" style="fill:rgb(5,150,105);"/>
    </g>
</svg>
